<svg width="24" height="25" viewBox="0 0 24 25" fill="none" xmlns="http://www.w3.org/2000/svg">
<path fill-rule="evenodd" clip-rule="evenodd" d="M10.5 4.24989C9.61358 4.24989 8.73584 4.42448 7.91689 4.7637C7.09794 5.10292 6.35383 5.60012 5.72703 6.22692C5.10023 6.85371 4.60303 7.59783 4.26381 8.41678C3.92459 9.23572 3.75 10.1135 3.75 10.9999C3.75 11.8863 3.92459 12.7641 4.26381 13.583C4.60303 14.402 5.10023 15.1461 5.72703 15.7729C6.35383 16.3997 7.09794 16.8969 7.91689 17.2361C8.73584 17.5753 9.61358 17.7499 10.5 17.7499C12.2902 17.7499 14.0071 17.0387 15.273 15.7729C16.5388 14.507 17.25 12.7901 17.25 10.9999C17.25 9.20968 16.5388 7.49279 15.273 6.22692C14.0071 4.96105 12.2902 4.24989 10.5 4.24989ZM2.25 10.9999C2.25017 9.67499 2.56944 8.36961 3.18079 7.19419C3.79214 6.01876 4.67759 5.00787 5.76224 4.24701C6.84689 3.48615 8.09883 2.99771 9.41216 2.82301C10.7255 2.64831 12.0616 2.79249 13.3074 3.24334C14.5533 3.6942 15.6722 4.43848 16.5695 5.41321C17.4669 6.38794 18.1163 7.56446 18.4628 8.84325C18.8094 10.122 18.8428 11.4655 18.5603 12.7599C18.2778 14.0544 17.6878 15.2617 16.84 16.2799L21.53 20.9699C21.6037 21.0386 21.6628 21.1214 21.7038 21.2134C21.7448 21.3054 21.7668 21.4047 21.7686 21.5054C21.7704 21.6061 21.7518 21.7061 21.7141 21.7995C21.6764 21.8929 21.6203 21.9777 21.549 22.0489C21.4778 22.1201 21.393 22.1763 21.2996 22.214C21.2062 22.2517 21.1062 22.2703 21.0055 22.2685C20.9048 22.2667 20.8055 22.2447 20.7135 22.2037C20.6215 22.1627 20.5387 22.1036 20.47 22.0299L15.78 17.3399C14.5752 18.3434 13.1094 18.9828 11.5543 19.1832C9.99922 19.3835 8.41922 19.1366 6.99941 18.4713C5.5796 17.806 4.37878 16.7499 3.53763 15.4266C2.69648 14.1034 2.24983 12.5678 2.25 10.9999Z" fill="#8F8FA7"/>
</svg>
