<svg width="17" height="14" viewBox="0 0 17 14" fill="none" xmlns="http://www.w3.org/2000/svg">
<path id="Path" d="M16.4 2.10032C15.805 2.3581 15.171 2.52896 14.51 2.61193C15.19 2.21094 15.709 1.58082 15.953 0.82131C15.319 1.19464 14.619 1.45835 13.873 1.60551C13.271 0.972421 12.413 0.580322 11.477 0.580322C9.66102 0.580322 8.19902 2.03612 8.19902 3.82082C8.19902 4.07761 8.22102 4.32452 8.27502 4.55958C5.54802 4.42822 3.13502 3.13736 1.51402 1.17094C1.23102 1.65588 1.06502 2.21094 1.06502 2.80847C1.06502 3.93045 1.65002 4.92501 2.52202 5.50082C1.99502 5.49094 1.47802 5.33983 1.04002 5.1018C1.04002 5.11168 1.04002 5.12452 1.04002 5.13736C1.04002 6.71168 2.17702 8.01933 3.66802 8.32057C3.40102 8.39267 3.11002 8.42724 2.80802 8.42724C2.59802 8.42724 2.38602 8.41538 2.18702 8.37193C2.61202 9.65489 3.81802 10.5981 5.25202 10.6287C4.13602 11.4909 2.71902 12.0104 1.18502 12.0104C0.916024 12.0104 0.658024 11.9986 0.400024 11.966C1.85302 12.8914 3.57502 13.4198 5.43202 13.4198C11.468 13.4198 14.768 8.48156 14.768 4.20106C14.768 4.05785 14.763 3.91958 14.756 3.7823C15.407 3.326 15.954 2.75612 16.4 2.10032Z" fill="#3861FB"/>
</svg>
