<svg width="25" height="24" viewBox="0 0 25 24" fill="none" xmlns="http://www.w3.org/2000/svg">
<path d="M15.5 9H19.25M15.5 12H19.25M15.5 15H19.25M5 19.5H20C20.5967 19.5 21.169 19.2629 21.591 18.841C22.0129 18.419 22.25 17.8467 22.25 17.25V6.75C22.25 6.15326 22.0129 5.58097 21.591 5.15901C21.169 4.73705 20.5967 4.5 20 4.5H5C4.40326 4.5 3.83097 4.73705 3.40901 5.15901C2.98705 5.58097 2.75 6.15326 2.75 6.75V17.25C2.75 17.8467 2.98705 18.419 3.40901 18.841C3.83097 19.2629 4.40326 19.5 5 19.5ZM11 9.375C11 9.62123 10.9515 9.86505 10.8573 10.0925C10.763 10.32 10.6249 10.5267 10.4508 10.7008C10.2767 10.8749 10.07 11.013 9.84253 11.1073C9.61505 11.2015 9.37123 11.25 9.125 11.25C8.87877 11.25 8.63495 11.2015 8.40747 11.1073C8.17998 11.013 7.97328 10.8749 7.79917 10.7008C7.62506 10.5267 7.48695 10.32 7.39273 10.0925C7.2985 9.86505 7.25 9.62123 7.25 9.375C7.25 8.87772 7.44754 8.40081 7.79917 8.04918C8.15081 7.69754 8.62772 7.5 9.125 7.5C9.62228 7.5 10.0992 7.69754 10.4508 8.04918C10.8025 8.40081 11 8.87772 11 9.375ZM12.294 15.711C11.3183 16.2307 10.2295 16.5017 9.124 16.5C8.0192 16.5014 6.9311 16.2304 5.956 15.711C6.19429 15.0622 6.62594 14.5023 7.19267 14.1067C7.75939 13.7111 8.43387 13.499 9.125 13.499C9.81613 13.499 10.4906 13.7111 11.0573 14.1067C11.6241 14.5023 12.0557 15.0622 12.294 15.711Z" stroke="#B0B0B0" stroke-width="1.5" stroke-linecap="round" stroke-linejoin="round"/>
</svg>
