<svg width="20" height="20" viewBox="0 0 20 20" fill="none" xmlns="http://www.w3.org/2000/svg">
<path d="M7.5 6.875H6.25C5.75272 6.875 5.27581 7.07254 4.92417 7.42417C4.57254 7.77581 4.375 8.25272 4.375 8.75V16.25C4.375 16.7473 4.57254 17.2242 4.92417 17.5758C5.27581 17.9275 5.75272 18.125 6.25 18.125H13.75C14.2473 18.125 14.7242 17.9275 15.0758 17.5758C15.4275 17.2242 15.625 16.7473 15.625 16.25V8.75C15.625 8.25272 15.4275 7.77581 15.0758 7.42417C14.7242 7.07254 14.2473 6.875 13.75 6.875H12.5M12.5 4.375L10 1.875M10 1.875L7.5 4.375M10 1.875V12.5" stroke="#575177" stroke-width="1.25" stroke-linecap="round" stroke-linejoin="round"/>
</svg>
