<svg width="181" height="181" viewBox="0 0 181 181" fill="none" xmlns="http://www.w3.org/2000/svg">
<circle cx="90.5" cy="90.5" r="89.5714" stroke="#E2E2E2" stroke-width="0.857143"/>
<circle cx="90.5004" cy="90.4994" r="85.7143" fill="#F9F9F9"/>
<g clip-path="url(#clip0_880_10955)">
<path d="M142.062 127.221C142.062 124.325 119.229 122 91.0385 122C62.8483 122 40.0352 124.344 40.0352 127.221C40.0352 130.097 62.8681 132.441 91.0385 132.441C119.209 132.441 142.062 130.097 142.062 127.221Z" fill="#E9EFFF"/>
<path d="M113.318 139.161C113.318 138.097 106.933 137.25 99.0648 137.25C91.1968 137.25 84.8115 138.097 84.8115 139.161C84.8115 140.225 91.1968 141.072 99.0648 141.072C106.933 141.072 113.318 140.225 113.318 139.161Z" fill="#E9EFFF"/>
<path d="M50.6505 48.8492C49.7609 48.3961 49.0295 47.6475 49.3655 47.1155C49.6818 46.623 50.611 46.8988 51.4413 47.3913C51.3029 46.5442 51.4215 45.7365 51.9355 45.638C52.9832 45.441 53.4774 48.5143 53.0228 49.2235C52.5878 50.2677 49.6423 51.0163 49.3853 49.9919C49.2667 49.4993 49.8795 49.0856 50.6505 48.8295V48.8492Z" fill="#D5D9FF"/>
<path d="M53.0234 49.2461C54.0909 49.8568 56.2062 53.2848 56.562 57.1265" stroke="#384AD2" stroke-width="1.71429" stroke-linecap="round" stroke-linejoin="round"/>
<path d="M51.955 49.5197C52.0143 49.3621 52.1922 49.2439 52.3701 49.1651C52.1527 49.0075 51.9352 48.6529 52.1329 48.4362C52.2713 48.2786 52.5481 48.515 52.7655 48.7317C52.7655 48.6332 52.7655 48.5347 52.805 48.4165C53.062 47.5694 53.4376 48.909 53.1411 49.2833C53.0818 49.3621 52.9237 49.5 52.7655 49.6182C52.4097 49.8941 51.8561 49.7956 51.955 49.5V49.5197Z" fill="#384AD2"/>
<path d="M50.0776 116.188C51.7975 114.336 54.4861 108.366 50.4335 104.623C48.595 102.929 48.0019 102.594 47.0135 102.673C46.3611 102.732 45.8471 103.106 45.3924 102.732C44.5819 102.042 47.1519 98.9888 44.4238 96.211C41.6957 93.4332 39.2641 94.9107 38.5327 94.1424C37.8012 93.3741 38.592 91.9359 36.8919 91.1478C35.2115 90.3598 33.8475 93.0982 31.5345 92.3693C29.1228 91.6207 24.8725 91.2661 24.1608 93.5317C23.4491 95.7973 25.3272 96.2898 25.8807 97.8264C26.4342 99.3631 24.912 103.816 28.4704 104.919C32.009 106.022 33.4719 105.904 33.7289 110.514C33.9859 115.124 37.9989 117.429 40.2526 117.094C42.4864 116.759 41.8736 117.921 40.7072 118.532C39.5211 119.143 41.3003 120.187 42.9411 120.029C44.5819 119.872 47.9426 118.493 50.0974 116.168L50.0776 116.188Z" fill="#8C9EFF"/>
<path d="M50.7297 117.272C45.4514 106.397 35.9822 98.7136 28.1143 95.2266" stroke="#8C9EFF" stroke-width="1.8" stroke-linecap="round" stroke-linejoin="round"/>
<path d="M34.2236 98.6153C34.2236 98.0242 34.6388 95.5616 35.4098 94.3008" stroke="#8C9EFF" stroke-width="1.8" stroke-linecap="round" stroke-linejoin="round"/>
<path d="M32.6612 97.6328C31.7716 97.8298 29.8145 98.8346 29.3203 99.2089" stroke="#8C9EFF" stroke-width="1.8" stroke-linecap="round" stroke-linejoin="round"/>
<path d="M40.332 103.464C40.2925 102.578 40.2727 100.785 41.6763 98.5195" stroke="#8C9EFF" stroke-width="1.8" stroke-linecap="round" stroke-linejoin="round"/>
<path d="M38.0383 101.453C37.208 101.453 34.5787 102.497 33.4717 103.069" stroke="#8C9EFF" stroke-width="1.8" stroke-linecap="round" stroke-linejoin="round"/>
<path d="M44.5618 107.855C43.3362 107.915 42.0314 108.762 41.1221 109.235" stroke="#8C9EFF" stroke-width="1.8" stroke-linecap="round" stroke-linejoin="round"/>
<path d="M46.6773 110.558C46.4598 109.396 46.875 107.169 47.5471 105.652" stroke="#8C9EFF" stroke-width="1.8" stroke-linecap="round" stroke-linejoin="round"/>
<path d="M47.3294 100.981C48.3969 100.922 54.1299 92.8049 52.6472 91.6032C51.4809 90.6772 50.4727 91.879 50.1366 92.3321C49.6028 93.061 48.4562 94.9129 47.962 94.4401C47.0922 93.5733 50.611 89.2785 51.4018 88.1752C52.1925 87.072 53.438 84.7276 52.8844 83.3288C52.3309 81.93 51.9355 81.4375 50.6703 83.447C49.3854 85.4565 47.369 89.7119 46.8747 88.0373C46.3805 86.3627 48.733 83.4273 49.4447 81.2602C50.1761 79.0734 50.8087 74.6998 49.1481 75.1726C47.6655 75.6061 46.4794 82.265 45.5107 81.5754C44.7397 81.0238 45.7479 79.3492 46.4398 76.3941C47.1317 73.4587 47.7446 70.6808 46.0247 70.1095C44.6409 69.6564 44.6013 71.6265 44.206 73.2025C43.8106 74.7786 43.178 76.9654 42.6047 76.2562C42.0116 75.547 44.6804 68.0015 42.6047 66.7604C41.2407 65.9526 41.1813 67.7454 40.6278 69.5579C40.0743 71.3704 39.7382 71.9614 39.4219 71.7447C39.1056 71.5083 39.4615 68.9472 39.6789 67.5484C39.9161 66.1496 39.758 64.0416 38.4533 63.7855C37.1485 63.5294 37.0101 65.8147 37.1485 66.6816C37.2869 67.5484 37.0694 68.4152 36.8125 68.4546C36.5555 68.494 35.8636 65.6965 34.4797 66.2678C33.0959 66.8392 34.0053 69.4594 35.231 70.3262C36.4566 71.1931 38.0777 72.4145 37.7614 72.8676C37.4451 73.3208 36.0217 72.2963 34.9147 71.5083C33.8076 70.7202 33.175 70.6414 32.9575 70.9369C32.2459 71.922 33.0959 73.7936 33.9064 74.3846C34.717 74.9756 39.7185 77.6352 39.244 78.3051C38.7696 78.9552 37.0101 77.7535 36.1008 77.123C35.1914 76.4729 33.0959 74.9756 32.3052 76.0789C31.5144 77.1821 33.9262 79.8023 35.7054 80.9253C37.5044 82.0482 40.5487 83.644 40.1731 84.1562C39.7975 84.6685 37.1485 83.8016 36.0612 83.0136C34.974 82.2256 33.4122 80.2752 32.4436 81.6345C31.4749 82.9939 32.9378 84.4518 35.0926 85.9884C35.9822 86.6386 38.2358 88.1949 39.9754 88.3131C41.9721 88.4313 42.9408 88.8254 42.921 89.2785C42.921 90.2044 41.1813 89.8498 39.9952 89.3376C38.8091 88.8057 35.231 86.9538 34.7367 88.9239C34.2425 90.8742 37.5044 91.6426 38.7696 92.076C40.0545 92.5094 44.6804 93.6521 44.4432 94.6568C44.206 95.6616 41.9128 94.4204 41.1616 94.1052C40.4104 93.79 38.6509 93.6324 38.7696 94.381C38.8882 95.1296 45.4119 101.079 47.2899 101.001L47.3294 100.981Z" fill="#0DCAF0"/>
<path d="M111.835 60.0611C113.278 56.1209 115.927 48.3194 113.614 38.4492" stroke="#384AD2" stroke-width="1.71429" stroke-linecap="round" stroke-linejoin="round"/>
<path d="M114.465 44.1231C114.168 43.7685 113.041 42.882 111.4 42.5273" stroke="#384AD2" stroke-width="1.71429" stroke-linecap="round" stroke-linejoin="round"/>
<path d="M114.365 42.9436C114.899 42.195 115.927 40.9341 116.639 40.4219" stroke="#384AD2" stroke-width="1.71429" stroke-linecap="round" stroke-linejoin="round"/>
<path d="M114.484 48.0037C114.939 47.3733 116.283 45.9942 116.896 45.7578" stroke="#384AD2" stroke-width="1.71429" stroke-linecap="round" stroke-linejoin="round"/>
<path d="M114.346 49.9363C114.03 49.3256 113.516 47.8874 111.559 47.3555" stroke="#384AD2" stroke-width="1.71429" stroke-linecap="round" stroke-linejoin="round"/>
<path d="M113.852 53.1267C114.464 52.3387 115.334 51.0778 116.461 51.2552" stroke="#384AD2" stroke-width="1.71429" stroke-linecap="round" stroke-linejoin="round"/>
<path d="M113.536 54.5654C113.239 53.7379 112.903 52.7135 111.361 51.9648" stroke="#384AD2" stroke-width="1.71429" stroke-linecap="round" stroke-linejoin="round"/>
<path d="M113.021 56.4947C113.931 55.687 115.038 55.1157 115.789 55.2142" stroke="#384AD2" stroke-width="1.71429" stroke-linecap="round" stroke-linejoin="round"/>
<path d="M112.073 59.4094C111.915 58.5032 111.381 56.8877 109.997 56.3164" stroke="#384AD2" stroke-width="1.71429" stroke-linecap="round" stroke-linejoin="round"/>
<path d="M112.586 37.229C112.803 36.7167 113.377 36.5 113.891 36.697C114.405 36.9138 114.622 37.4851 114.424 37.9973C114.207 38.5095 113.634 38.7262 113.12 38.5292C112.606 38.3125 112.388 37.7412 112.586 37.229Z" fill="#FC6B02"/>
<path d="M116.007 40.0058C116.165 39.6118 116.619 39.4345 117.015 39.6118C117.41 39.7694 117.588 40.2225 117.41 40.6165C117.252 41.0106 116.797 41.1879 116.402 41.0106C116.007 40.8529 115.829 40.3998 116.007 40.0058Z" fill="#FC6B02"/>
<path d="M110.254 42.1113C110.412 41.7173 110.866 41.5399 111.262 41.7173C111.657 41.8749 111.835 42.328 111.657 42.722C111.499 43.116 111.044 43.2933 110.649 43.116C110.254 42.9584 110.076 42.5053 110.254 42.1113Z" fill="#FC6B02"/>
<path d="M116.639 45.3417C116.798 44.9477 117.252 44.7704 117.648 44.9477C118.043 45.125 118.221 45.5585 118.043 45.9525C117.885 46.3465 117.43 46.5238 117.035 46.3465C116.639 46.1889 116.461 45.7358 116.639 45.3417Z" fill="#FC6B02"/>
<path d="M110.511 51.4121C110.67 51.018 111.124 50.8407 111.52 51.018C111.915 51.1756 112.093 51.6288 111.915 52.0228C111.757 52.4168 111.302 52.5941 110.907 52.4168C110.511 52.2592 110.334 51.8061 110.511 51.4121Z" fill="#FC6B02"/>
<path d="M115.512 54.9199C115.671 54.5259 116.125 54.3485 116.521 54.5259C116.916 54.6835 117.094 55.1366 116.916 55.5306C116.758 55.9246 116.303 56.1019 115.908 55.9246C115.512 55.767 115.334 55.3139 115.512 54.9199Z" fill="#FC6B02"/>
<path d="M110.63 47.0806C110.808 46.6472 111.322 46.4501 111.756 46.6275C112.191 46.8048 112.389 47.317 112.211 47.7504C112.033 48.1838 111.519 48.3808 111.084 48.2035C110.649 48.0262 110.452 47.514 110.63 47.0806Z" fill="#FC6B02"/>
<path d="M115.967 50.8423C116.144 50.4089 116.658 50.2119 117.093 50.3892C117.528 50.5665 117.726 51.0787 117.548 51.5121C117.37 51.9455 116.856 52.1426 116.421 51.9652C115.986 51.7879 115.789 51.2757 115.967 50.8423Z" fill="#FC6B02"/>
<path d="M108.81 55.8657C108.988 55.4323 109.502 55.2353 109.937 55.4126C110.372 55.5899 110.57 56.1021 110.392 56.5356C110.214 56.969 109.7 57.166 109.265 56.9887C108.83 56.8114 108.632 56.2992 108.81 55.8657Z" fill="#FC6B02"/>
<path d="M129.646 64.6916C136.17 59.9436 135.34 52.4376 128.717 45.6211C123.676 51.0782 121.917 60.4362 129.646 64.6916Z" fill="#9F9CFF"/>
<path d="M129.646 64.6909C129.29 61.322 129.468 53.0871 128.935 47.9648" stroke="#807DFB" stroke-width="1.8" stroke-linecap="round" stroke-linejoin="round"/>
<path d="M134.668 113.783C139.333 118.827 145.62 117.408 150.779 111.143C145.659 107.42 137.534 106.829 134.668 113.783Z" fill="#BBC0E6"/>
<path d="M133.956 111.399C143.702 113.173 149.692 106.12 150.187 94.4961C141.053 94.6537 131.228 100.958 133.956 111.399Z" fill="#D5D9FF"/>
<path d="M133.956 111.4C136.664 108.248 144.157 101.451 148.288 96.6641" stroke="#BBC0E6" stroke-width="2.31429" stroke-linecap="round" stroke-linejoin="round"/>
<path d="M133.107 64.0392C144.909 64.4726 150.76 55.1344 149.357 41.3438C138.622 43.0577 128.085 52.1792 133.107 64.0392Z" fill="#8C9EFF"/>
<path d="M133.106 64.0418C135.755 59.8455 143.445 50.5663 147.498 44.2227" stroke="#8C9EFF" stroke-width="1.8" stroke-linecap="round" stroke-linejoin="round"/>
<path d="M90.5241 65.1251C93.0941 64.1204 100.942 54.4275 97.0281 51.4133C93.3115 48.5567 90.2078 56.7719 89.7334 57.8161C89.7532 53.4622 89.4962 49.1871 86.5704 49.3447C83.6644 49.5023 85.1668 55.9642 85.1668 55.9642C83.3283 52.2407 78.1094 46.0152 74.9464 46.9018C71.7834 47.7686 79.2955 54.8806 79.2955 54.8806C75.836 51.827 64.7457 46.3699 75.2627 54.4866C70.2612 51.63 59.9814 48.5764 70.8542 54.6245C63.9747 52.5362 60.2384 52.7529 59.9024 53.6986C59.5663 54.6442 61.3257 56.4764 70.3205 58.6041C65.6946 58.4071 63.2433 58.9784 64.3108 59.6089C66.1295 60.0029 90.5439 65.1251 90.5439 65.1251H90.5241Z" fill="#D5D9FF"/>
<path d="M75.7573 57.3042C75.7969 57.1072 75.6783 56.9102 75.4806 56.8708C75.2829 56.8314 75.0852 56.9496 75.0457 57.1466C75.0061 57.3437 75.1247 57.5407 75.3224 57.5801C75.5201 57.6195 75.7178 57.5013 75.7573 57.3042Z" fill="white"/>
<path d="M88.6664 61.4772C88.7257 61.162 88.528 60.8665 88.2315 60.8074C87.9152 60.7483 87.6187 60.9453 87.5593 61.2408C87.5 61.556 87.6977 61.8515 87.9943 61.9106C88.3106 61.9697 88.6071 61.7727 88.6664 61.4772Z" fill="white"/>
<path d="M82.6166 56.4773C82.6759 56.2212 82.498 55.965 82.241 55.9059C81.984 55.8468 81.727 56.0241 81.6677 56.2803C81.6084 56.5364 81.7863 56.7925 82.0433 56.8516C82.3003 56.9107 82.5573 56.7334 82.6166 56.4773Z" fill="white"/>
<path d="M45.1553 60.082L91.0583 63.1751V125.095H45.1553V60.082Z" fill="#384AD2"/>
<path d="M136.962 60.082L91.0586 63.1751V125.095H136.962V60.082Z" fill="#5652CC"/>
<path d="M91.0579 122.847C84.0005 124.758 55.3556 126.432 46.9736 126.432V57.6172C55.5533 57.6172 83.526 60.0404 91.0579 62.2272V122.867V122.847Z" fill="#D5D9FF"/>
<path d="M91.0586 122.847C98.116 124.758 126.761 126.432 135.143 126.432V57.6172C126.563 57.6172 98.5905 60.0404 91.0586 62.2272V122.867V122.847Z" fill="#D5D9FF"/>
<path d="M91.0581 125.095C84.4356 127.143 57.5699 128.385 49.7217 128.385V55.1367C57.7676 55.1367 83.9809 59.8649 91.0581 62.2093V125.095Z" fill="white"/>
<path d="M91.0586 125.095C97.6811 127.143 124.547 128.385 132.395 128.385V55.1367C124.349 55.1367 98.1358 59.8649 91.0586 62.2093V125.095Z" fill="#F6F6FB"/>
<path d="M47.6652 59.5898L43.1777 65.1258L47.6652 71.4695C48.4362 71.4695 48.6734 71.4695 49.7212 71.5089V59.6489C48.6734 59.6095 48.4362 59.5898 47.6652 59.5898Z" fill="#FB944B"/>
<path d="M134.451 76.668C133.68 76.668 133.443 76.6877 132.395 76.7271C124.349 76.7271 98.1358 78.6184 91.0586 79.5837V89.1977C98.116 89.0007 124.349 88.587 132.395 88.587C133.443 88.5673 133.68 88.5476 134.451 88.5476L138.938 82.2039L134.451 76.668Z" fill="#0DCAF0"/>
<path d="M134.45 94.9925C133.679 94.9925 133.442 94.9925 132.395 94.9531V106.813C133.442 106.852 133.679 106.872 134.45 106.872L138.938 101.336L134.45 94.9925Z" fill="#8C9EFF"/>
<path d="M135.143 113.035V123.083L138.938 118.394L135.143 113.035Z" fill="#8C9EFF"/>
<path d="M60.3774 101.096C60.9112 100.682 61.2868 100.052 61.3263 99.3428C61.3263 99.3428 61.3263 99.3428 61.3263 99.3231C61.3263 99.264 61.3263 98.6927 61.3263 98.6336C61.3263 97.353 60.2786 96.2892 58.9936 96.3089C57.7087 96.3089 56.6807 97.4121 56.6807 98.7321C56.6807 99.0276 56.6807 99.1655 56.6807 99.461C56.74 100.19 57.1156 100.82 57.6691 101.195C55.6725 101.53 53.9921 103.145 54.4073 105.273C55.3562 105.273 59.0529 105.155 59.0529 105.155C59.0529 105.155 62.7102 104.898 63.5997 104.8C63.9556 102.751 62.3346 101.234 60.3774 101.096Z" fill="#D5D9FF"/>
<path d="M67.7705 100.31C72.9104 100.251 78.2282 100.152 82.6168 100.034V99.2461C78.2282 99.3643 72.9104 99.4431 67.7705 99.5219V100.31Z" fill="#D5D9FF"/>
<path d="M70.3994 102.38C73.7996 102.321 77.1999 102.242 80.2838 102.163V101.375C77.1999 101.454 73.8194 101.533 70.3994 101.592V102.38Z" fill="#D5D9FF"/>
<path d="M60.3772 118.985C60.9109 118.551 61.247 117.921 61.2865 117.211C61.2865 117.211 61.2865 117.211 61.2865 117.192C61.2865 117.133 61.2865 116.561 61.2865 116.502C61.247 115.222 60.1597 114.197 58.8945 114.256C57.6293 114.296 56.6409 115.399 56.6607 116.699C56.6607 116.995 56.6607 117.133 56.6607 117.428C56.72 118.137 57.1153 118.768 57.6689 119.142C55.692 119.516 53.9523 121.132 54.3675 123.279C55.3559 123.26 59.1515 123.063 59.1515 123.063C59.1515 123.063 62.7297 122.708 63.5797 122.55C64.0542 119.536 61.2272 118.985 60.3772 118.985Z" fill="#D5D9FF"/>
<path d="M67.7705 117.686C72.9104 117.469 78.2282 117.193 82.6168 116.839V116.051C78.2479 116.405 72.9104 116.681 67.7705 116.898V117.686Z" fill="#D5D9FF"/>
<path d="M70.3994 119.895C73.7996 119.718 77.1999 119.521 80.2838 119.284V118.496C77.2196 118.733 73.8194 118.93 70.3994 119.107V119.895Z" fill="#D5D9FF"/>
<path d="M60.3767 82.9522C60.9104 82.5976 61.286 82.0065 61.3256 81.317C61.3256 81.317 61.3256 81.317 61.3256 81.2973C61.3256 81.2382 61.3256 80.6669 61.3256 80.6275C61.3256 79.3666 60.2581 78.1846 58.9929 78.1057C57.7079 78.0269 56.6799 79.0711 56.6799 80.3714C56.6799 80.6669 56.6799 80.8048 56.6799 81.1003C56.7392 81.8292 57.1148 82.4596 57.6684 82.8734C55.652 83.1098 53.9914 84.7253 54.3868 86.8529C55.3357 86.8529 59.0522 86.8726 59.0522 86.8726C59.0522 86.8726 62.7094 86.9317 63.599 86.9711C63.9351 84.9223 62.3338 83.2871 60.3767 82.9719V82.9522Z" fill="#384AD2"/>
<path d="M67.7705 82.3232C72.9104 82.5596 78.2282 82.8551 82.6168 83.1309V82.3429C78.2084 82.0671 72.9104 81.7913 67.7705 81.5352V82.3232Z" fill="#D5D9FF"/>
<path d="M70.3994 84.4521C73.7996 84.59 77.1999 84.7279 80.2838 84.8658V84.0778C77.1999 83.9399 73.7996 83.7823 70.3994 83.6641V84.4521Z" fill="#D5D9FF"/>
<path d="M60.2577 65.6177C60.7915 65.2828 61.1868 64.7312 61.2462 64.0416C61.2462 64.0416 61.2462 64.0416 61.2462 64.0219C61.2462 63.9628 61.2659 63.3915 61.2659 63.3521C61.2857 62.0912 60.2973 60.8698 59.0321 60.7319C57.7669 60.594 56.6993 61.5593 56.6993 62.8596C56.6993 63.1551 56.6993 63.293 56.6993 63.5885C56.7389 64.3174 57.1145 64.9676 57.6285 65.401C55.6318 65.5389 53.9713 67.115 54.3864 69.2033C55.3748 69.2427 58.8541 69.4594 58.8541 69.4594C58.8541 69.4594 62.4916 69.7943 63.5789 69.9125C63.8952 67.8242 62.195 66.1102 60.2577 65.6374V65.6177Z" fill="#D5D9FF"/>
<path d="M67.7705 64.6525V65.4406C72.9104 66.1104 78.2282 66.8787 82.6168 67.6076V66.7999C78.2084 66.071 72.9104 65.2829 67.7705 64.6328V64.6525Z" fill="#D5D9FF"/>
<path d="M70.3994 67.1916V67.9796C73.7996 68.3933 77.1999 68.8465 80.2838 69.2996V68.4918C77.1999 68.0387 73.7996 67.5856 70.3994 67.1719V67.1916Z" fill="#D5D9FF"/>
<path d="M106.577 83.0117C105.272 83.0708 103.967 83.1299 102.722 83.2087V83.9968C103.967 83.9377 105.252 83.8786 106.577 83.7998V83.0117Z" fill="#F6F6FB"/>
<path d="M111.045 82.8164C110.57 82.8361 110.076 82.8558 109.602 82.8755V83.6635C110.076 83.6438 110.57 83.6241 111.045 83.6044V82.8164Z" fill="#F6F6FB"/>
<path d="M114.01 82.6985V83.4866C117.469 83.3487 120.87 83.2108 123.874 83.1123V82.3242C120.87 82.4227 117.469 82.5409 114.01 82.6985Z" fill="#F6F6FB"/>
<path d="M104.777 89.2383C108.079 92.8041 108.237 98.5371 108.237 99.1281C108.237 100.547 105.43 104.487 105.43 104.487L104.777 89.2383Z" fill="#E57139"/>
<path d="M87.3214 83.3468C87.2225 82.9331 87.4004 81.8496 87.2225 81.2388C87.0446 80.6281 85.8585 78.6383 85.5224 78.7171C85.2061 78.7959 86.0957 80.1159 86.1352 80.4311C85.8387 80.569 84.7514 81.16 84.9887 81.7511C85.2259 82.3421 85.4038 82.7558 85.7003 82.9922C85.9573 83.1892 86.0562 83.7408 86.0562 83.7408L87.3411 83.3468H87.3214Z" fill="#FCDDD6"/>
<path d="M106.497 106.043C106.399 114.022 105.015 115.283 104.54 123.025C104.145 129.329 106.319 134.136 106.596 136.264H105.153C104.086 133.447 97.2852 123.143 99.2818 106.063H106.517L106.497 106.043Z" fill="#8C9EFF"/>
<path d="M106.913 136.794C106.775 136.616 106.577 136.262 106.577 136.262H105.134C105.272 136.675 105.371 137.01 105.312 137.227C105.687 137.365 106.241 136.991 106.933 136.794H106.913Z" fill="#FFD3C9"/>
<path d="M106.912 136.797C106.22 136.994 105.667 137.368 105.291 137.23C105.093 137.368 102.148 138.432 101.851 138.629C101.535 138.846 101.594 139.161 101.911 139.161C102.385 139.161 106.299 138.984 106.299 138.984C106.378 139.062 106.438 139.161 106.438 139.161H107.327C107.584 138.708 107.525 137.309 106.912 136.797Z" fill="#20196F"/>
<path d="M106.498 106.043C106.498 113.313 101.734 113.628 98.5508 120.681C96.3565 125.527 95.9216 134.964 95.8227 136.244H94.3796C93.5888 132.797 91.2957 119.656 95.8227 106.043H106.498Z" fill="#8C9EFF"/>
<path d="M95.8027 136.794C95.8027 136.557 95.8027 136.262 95.8027 136.262H94.3596C94.4189 136.675 94.2409 137.01 94.1816 137.227C94.5572 137.365 95.1108 136.991 95.8027 136.794Z" fill="#FFD3C9"/>
<path d="M95.8025 136.797C95.1106 136.994 94.5571 137.368 94.1814 137.23C93.9838 137.368 91.0382 138.432 90.7417 138.629C90.4452 138.846 90.4847 139.161 90.801 139.161C91.2754 139.161 95.1897 138.984 95.1897 138.984C95.2687 139.062 95.328 139.161 95.328 139.161H96.2176C96.4746 138.708 96.4153 137.309 95.8025 136.797Z" fill="#20196F"/>
<path d="M87.6378 83.2109C87.6378 83.2109 89.3576 87.8209 90.5833 89.5546C91.3543 90.1851 95.2883 88.5499 98.1943 88.3529C98.5303 88.3135 99.1629 88.2544 99.2223 88.2544C100.764 88.1362 103.136 88.2938 103.136 88.2938C105.232 89.0424 105.687 89.9683 106.24 93.81C106.794 97.632 106.497 106.044 106.497 106.044H95.822C95.4464 103.818 95.7232 97.1001 96.4349 93.416C94.4184 92.6871 89.8321 94.1843 88.5274 92.2733C87.2226 89.8304 86.254 87.1117 85.6807 83.6247C85.6807 83.6247 86.59 83.4473 87.6575 83.2109H87.6378Z" fill="#FB944B"/>
<path d="M99.4196 82.01C99.2615 82.8965 98.5301 85.4773 99.0045 86.4624C99.3999 87.2504 100.27 87.4277 101.713 87.014C103.156 86.6003 103.334 84.0391 103.551 83.2905C103.907 82.1282 99.7557 80.1581 99.4196 82.01Z" fill="#FFD3C9"/>
<path d="M100.409 87.0912C100.33 87.5443 100.132 88.2141 100.132 88.2141C100.33 88.4702 103.216 88.8052 102.939 88.3323C102.84 87.5049 102.899 85.5742 102.899 85.5742L100.409 87.0912Z" fill="#FFD3C9"/>
<path d="M103.236 81.2393C101.792 80.5104 99.954 79.0328 99.7365 79.1904C99.697 79.2298 99.7761 79.3283 99.7365 79.3677C99.6574 79.4268 99.0248 78.3827 98.4318 78.757C97.8189 79.1313 98.0957 81.0817 99.44 82.0077C100.804 82.9336 99.44 83.7807 100.053 84.293C100.646 84.8052 100.527 86.5389 101.575 86.598C102.623 86.6571 103.196 87.3269 103.196 86.6768C103.196 86.0266 103.848 84.7658 103.829 83.6428C103.829 82.5396 104.046 81.6333 103.255 81.2196L103.236 81.2393Z" fill="#20196F"/>
<path d="M100.389 83.9574C100.409 83.7013 100.291 83.4648 100.132 83.4648C99.9743 83.4648 99.8161 83.6421 99.7766 83.918C99.7568 84.1741 99.8754 84.4105 100.034 84.4105C100.192 84.4105 100.35 84.2332 100.389 83.9771V83.9574Z" fill="#F7D3C9"/>
<path d="M95.8028 106.044C95.4272 103.818 95.7039 97.0996 96.4156 93.4155C94.4585 92.7063 90.1094 94.3021 88.6465 92.4502C89.0616 93.0609 93.7864 91.6819 96.9494 92.5881C98.8669 93.1397 97.3052 93.9475 97.0087 95.5629C96.7121 97.1784 96.4354 101.749 96.8505 106.044H95.783H95.8028Z" fill="#E57139"/>
<path d="M96.9891 31.3557L94.775 31.8089C94.5971 31.8483 94.4587 31.9665 94.3994 32.1438L93.6877 34.2912C93.6284 34.4488 93.6877 34.6458 93.7866 34.7837L95.289 36.478C95.4076 36.6159 95.5855 36.675 95.7634 36.6356L97.9775 36.1825C98.1555 36.1431 98.2938 36.0248 98.3531 35.8475L99.0648 33.7001C99.1241 33.5425 99.0648 33.3455 98.966 33.2076L97.4636 31.5133C97.3449 31.3754 97.167 31.3163 96.9891 31.3557Z" fill="#807DFB"/>
<path d="M15.6138 117.408L14.5369 119.514C14.413 119.757 14.5097 120.053 14.7529 120.177L16.8665 121.25C17.1097 121.373 17.4073 121.277 17.5313 121.035L18.6082 118.928C18.7322 118.686 18.6355 118.389 18.3923 118.266L16.2786 117.193C16.0354 117.069 15.7378 117.165 15.6138 117.408Z" fill="#DAE0F5"/>
</g>
<defs>
<clipPath id="clip0_880_10955">
<rect width="136.286" height="109.714" fill="white" transform="translate(14.4941 31.3555)"/>
</clipPath>
</defs>
</svg>
