<svg width="21" height="21" viewBox="0 0 21 21" fill="none" xmlns="http://www.w3.org/2000/svg">
<path d="M12.7833 7.99946L12.495 15.4995M8.505 15.4995L8.21667 7.99946M16.5233 5.32446C16.8083 5.36779 17.0917 5.41362 17.375 5.46279M16.5233 5.32446L15.6333 16.8936C15.597 17.3646 15.3842 17.8046 15.0375 18.1255C14.6908 18.4464 14.2358 18.6246 13.7633 18.6245H7.23667C6.76425 18.6246 6.30919 18.4464 5.96248 18.1255C5.61578 17.8046 5.40299 17.3646 5.36667 16.8936L4.47667 5.32446M16.5233 5.32446C15.5616 5.17906 14.5948 5.0687 13.625 4.99362M4.47667 5.32446C4.19167 5.36696 3.90833 5.41279 3.625 5.46196M4.47667 5.32446C5.43844 5.17906 6.4052 5.06871 7.375 4.99362M13.625 4.99362V4.23029C13.625 3.24696 12.8667 2.42696 11.8833 2.39612C10.9613 2.36666 10.0387 2.36666 9.11667 2.39612C8.13333 2.42696 7.375 3.24779 7.375 4.23029V4.99362M13.625 4.99362C11.5448 4.83286 9.45523 4.83286 7.375 4.99362" stroke="#EA3959" stroke-width="1.25" stroke-linecap="round" stroke-linejoin="round"/>
</svg>
