<svg width="40" height="40" viewBox="0 0 40 40" fill="none" xmlns="http://www.w3.org/2000/svg">
<g clip-path="url(#clip0_8405_15350)">
<path d="M9.9375 27.125L6.75 26.4375C5.875 26.25 5.0625 26.9375 5.0625 27.8125V29.125C5.0625 30.1875 5.875 30.4375 6.875 30.4375H10.5C11.375 30.4375 11.6875 30.0625 11.6875 29.5625V29.375C11.75 28.3125 11 27.375 9.9375 27.125ZM6.25 29.1875C6.25 29.125 6.25 29.0625 6.25 27.8125C6.25 27.6875 6.375 27.5625 6.5 27.625L9.6875 28.3125C10.125 28.4375 10.4375 28.8125 10.5 29.25C6.75 29.25 6.4375 29.25 6.25 29.1875Z" fill="#222222"/>
<path d="M22 29.8125H14.125C13.8125 29.8125 13.5 30.0625 13.5 30.4375C13.5 30.8125 13.75 31.0625 14.125 31.0625H22C22.3125 31.0625 22.625 30.8125 22.625 30.4375C22.625 30.0625 22.3125 29.8125 22 29.8125Z" fill="#222222"/>
<path d="M22 32.25H14.125C13.8125 32.25 13.5 32.5 13.5 32.875C13.5 33.25 13.75 33.5 14.125 33.5H22C22.3125 33.5 22.625 33.25 22.625 32.875C22.625 32.5 22.3125 32.25 22 32.25Z" fill="#222222"/>
<path d="M38.25 4H35.9375V3.125C35.9375 2.8125 35.6875 2.5 35.3125 2.5H33.75C33.4375 1.0625 32.1875 0 30.6875 0C29.1875 0 27.875 1.0625 27.625 2.5H26C25.6875 2.5 25.375 2.75 25.375 3.125V3.9375H23.0625C22.125 3.9375 21.375 4.6875 21.375 5.625V14.25H10.75C9.375 14.25 8.1875 15.0625 7.6875 16.3125L5.25 21.375C4.6875 20.5625 3.75 20.0625 2.75 20.0625H1.6875C0.75 20.0625 0 20.8125 0 21.75V22.4375C0 23.375 0.75 24.125 1.6875 24.125H3.3125C2.625 25 2.3125 26.125 2.3125 27.25V31C2.3125 32.4375 2.8125 33.8125 3.8125 35V37.8125C3.8125 39.0625 4.8125 40.0625 6.0625 40.0625H8.375C9.625 40.0625 10.625 39.0625 10.625 37.8125V36.6875H25.625V37.8125C25.625 39.0625 26.625 40.0625 27.875 40.0625H30.1875C31.4375 40.0625 32.4375 39.0625 32.4375 37.8125V35C33.4375 33.875 33.9375 32.5 33.9375 31V28.5H38.3125C39.25 28.5 40 27.75 40 26.8125V5.6875C40 4.75 39.1875 4 38.25 4ZM26.5625 3.75H28.125C28.4375 3.75 28.75 3.5 28.75 3.125C28.75 2.0625 29.625 1.25 30.6875 1.25C31.75 1.25 32.625 2.125 32.625 3.1875C32.625 3.5 32.875 3.8125 33.25 3.8125H34.8125V5.4375H26.5625V3.75ZM8.8125 16.8125C9.125 16 9.875 15.5 10.75 15.5H21.3125V23.125H5.6875C6.0625 22.625 5.4375 23.75 8.8125 16.8125ZM1.25 22.4375V21.75C1.25 21.5 1.4375 21.3125 1.6875 21.3125H2.75C4 21.3125 4.4375 22.4375 4.5625 22.625C4.5 22.75 4.4375 22.8125 4.3125 22.9375H1.6875C1.4375 22.875 1.25 22.6875 1.25 22.4375ZM9.375 37.75C9.375 38.3125 8.9375 38.75 8.375 38.75H6C5.4375 38.75 5 38.3125 5 37.75V35.9375C5.75 36.375 6.625 36.625 7.5 36.625H9.375V37.75ZM30.125 38.75H27.8125C27.25 38.75 26.8125 38.3125 26.8125 37.75V36.625H28.6875C29.5625 36.625 30.4375 36.375 31.1875 35.9375V37.75C31.1875 38.3125 30.6875 38.75 30.125 38.75ZM32.6875 30.9375C32.6875 33.1875 31.0625 35.4375 28.6875 35.4375C23.625 35.4375 12.9375 35.4375 7.5 35.4375C5.25 35.4375 3.5 33.25 3.5 30.9375V27.1875C3.5 26.125 3.9375 25.125 4.6875 24.3125H21.375V26.75C21.375 27.6875 22.125 28.4375 23.0625 28.4375H24.625C24.5 28.6875 24.4375 29 24.4375 29.3125C24.5 29.375 24.0625 30.375 25.9375 30.375H29.375C30.4375 30.375 31.125 30.125 31.125 29.0625V28.375H32.6875V30.9375ZM26.125 28.5H29.9375V29.25C29.75 29.3125 25.75 29.3125 25.6875 29.3125C25.6875 28.9375 25.8125 28.625 26.125 28.5ZM38.75 26.75C38.75 27 38.5 27.25 38.25 27.25H23.0625C22.8125 27.25 22.5625 27 22.5625 26.75C22.5625 23.875 22.5625 17.8125 22.5625 14.875V5.6875C22.5625 5.4375 22.8125 5.1875 23.0625 5.1875H25.375V6C25.375 6.3125 25.625 6.625 26 6.625H35.375C35.6875 6.625 36 6.375 36 6V5.1875H38.3125C38.5625 5.1875 38.8125 5.4375 38.8125 5.6875V26.75H38.75Z" fill="#222222"/>
<path d="M30.8751 2.4375C30.6251 2.3125 30.2501 2.4375 30.0626 2.75C29.9376 3 30.0001 3.25 30.1876 3.4375C30.5001 3.75 31.0001 3.625 31.1876 3.25C31.3126 2.9375 31.2501 2.5625 30.8751 2.4375Z" fill="#222222"/>
<path d="M37 10.25H30.25C29.9375 10.25 29.625 10.5 29.625 10.875C29.625 11.25 29.875 11.5 30.25 11.5H37C37.3125 11.5 37.625 11.25 37.625 10.875C37.625 10.5 37.3125 10.25 37 10.25Z" fill="#222222"/>
<path d="M27.375 9.3125L25.5625 11.125L24.75 10.3125C24.5 10.0625 24.125 10.0625 23.875 10.3125C23.625 10.5625 23.625 10.9375 23.875 11.1875L25.125 12.4375C25.375 12.6875 25.75 12.6875 26 12.4375L28.25 10.1875C28.5 9.9375 28.5 9.5625 28.25 9.3125C28 9.0625 27.625 9.0625 27.375 9.3125Z" fill="#222222"/>
<path d="M37 15.9375H30.25C29.9375 15.9375 29.625 16.1875 29.625 16.5625C29.625 16.9375 29.875 17.1875 30.25 17.1875H37C37.3125 17.1875 37.625 16.9375 37.625 16.5625C37.625 16.1875 37.3125 15.9375 37 15.9375Z" fill="#222222"/>
<path d="M27.375 15L25.5625 16.8125L24.75 16C24.5 15.75 24.125 15.75 23.875 16C23.625 16.25 23.625 16.625 23.875 16.875L25.125 18.125C25.375 18.375 25.75 18.375 26 18.125L28.25 15.875C28.5 15.625 28.5 15.25 28.25 15C28 14.75 27.625 14.75 27.375 15Z" fill="#222222"/>
<path d="M37 21.6875H30.25C29.9375 21.6875 29.625 21.9375 29.625 22.3125C29.625 22.6875 29.875 22.9375 30.25 22.9375H37C37.3125 22.9375 37.625 22.6875 37.625 22.3125C37.625 21.9375 37.3125 21.6875 37 21.6875Z" fill="#222222"/>
<path d="M28.25 20.75C28 20.5 27.625 20.5 27.375 20.75L26.6875 21.4375L26 20.75C25.75 20.5 25.375 20.5 25.125 20.75C24.875 21 24.875 21.375 25.125 21.625L25.8125 22.3125L25.125 23C24.875 23.25 24.875 23.625 25.125 23.875C25.375 24.125 25.75 24.125 26 23.875L26.6875 23.1875L27.375 23.875C27.625 24.125 28 24.125 28.25 23.875C28.5 23.625 28.5 23.25 28.25 23L27.5625 22.3125L28.25 21.625C28.5 21.375 28.5 20.9375 28.25 20.75Z" fill="#222222"/>
</g>
<defs>
<clipPath id="clip0_8405_15350">
<rect width="40" height="40" fill="white"/>
</clipPath>
</defs>
</svg>
