<svg width="17" height="12" viewBox="0 0 17 12" fill="none" xmlns="http://www.w3.org/2000/svg">
<path id="Shape" fill-rule="evenodd" clip-rule="evenodd" d="M14.256 0.592C15.215 0.646 15.686 0.788 16.12 1.56C16.572 2.331 16.8 3.659 16.8 5.998V6.001V6.006C16.8 8.334 16.572 9.672 16.121 10.435C15.687 11.207 15.216 11.347 14.257 11.412C13.298 11.467 10.889 11.5 8.80199 11.5C6.71099 11.5 4.30099 11.467 3.34299 11.411C2.38599 11.346 1.91499 11.206 1.47699 10.434C1.02999 9.671 0.799988 8.333 0.799988 6.005V6.003V6V5.997C0.799988 3.659 1.02999 2.331 1.47699 1.56C1.91499 0.787 2.38699 0.646 3.34399 0.591C4.30099 0.527 6.71099 0.5 8.80199 0.5C10.889 0.5 13.298 0.527 14.256 0.592ZM11.7998 5.99959L6.79977 2.99959V8.99959L11.7998 5.99959Z" fill="#8F8FA7"/>
</svg>
