<svg width="48" height="48" viewBox="0 0 48 48" fill="none" xmlns="http://www.w3.org/2000/svg">
<path d="M25.5003 6.06001V7.19601C25.5003 7.86401 25.7963 8.49601 26.3103 8.92401L28.4463 10.704C29.3303 11.442 29.5163 12.724 28.8783 13.684L27.8583 15.216C27.3029 16.0484 26.4858 16.672 25.5363 16.988L25.2503 17.084C24.9276 17.1919 24.6341 17.3727 24.3926 17.6125C24.1511 17.8522 23.9681 18.1444 23.8578 18.4663C23.7476 18.7882 23.713 19.1312 23.7568 19.4686C23.8006 19.8061 23.9215 20.1289 24.1103 20.412C24.8483 21.522 24.4483 23.026 23.2563 23.622L18.0003 26.25L18.8463 28.368C19.0169 28.7982 19.0257 29.2756 18.8711 29.7118C18.7165 30.148 18.4089 30.5133 18.0054 30.7399C17.6019 30.9666 17.13 31.0392 16.677 30.9443C16.2241 30.8495 15.8209 30.5935 15.5423 30.224L14.1843 28.412C13.9542 28.1053 13.6494 27.8625 13.2991 27.7067C12.9487 27.5508 12.5643 27.4871 12.1824 27.5216C11.8005 27.556 11.4338 27.6875 11.117 27.9036C10.8002 28.1196 10.5438 28.4131 10.3723 28.756L9.0003 31.5L7.7763 31.806M25.5003 6.06001C22.3384 5.79468 19.1626 6.37188 16.2946 7.72931C13.4266 9.08674 10.9684 11.1782 9.16909 13.7917C7.36977 16.4052 6.29327 19.4479 6.04868 22.6114C5.80409 25.775 6.4001 28.947 7.7763 31.806M25.5003 6.06001C28.6357 6.32151 31.6478 7.40226 34.2363 9.19074C36.8248 10.9792 38.8993 13.4149 40.253 16.2551C41.6067 19.0952 42.1923 22.2406 41.9515 25.3776C41.7106 28.5147 40.6517 31.5338 38.8803 34.134L38.5263 33.076C38.2274 32.18 37.6542 31.4008 36.8878 30.8488C36.1215 30.2967 35.2008 29.9997 34.2563 30H33.0003L32.3523 29.352C32.0268 29.026 31.6285 28.782 31.1901 28.6402C30.7518 28.4984 30.286 28.4629 29.8312 28.5365C29.3764 28.6102 28.9456 28.7909 28.5745 29.0638C28.2033 29.3367 27.9023 29.6939 27.6963 30.106L27.6243 30.252C27.4279 30.6453 27.1519 30.9934 26.8138 31.2744C26.4757 31.5553 26.0829 31.7629 25.6603 31.884L23.6803 32.448C22.5803 32.762 21.8923 33.852 22.0803 34.982L22.2263 35.858C22.3863 36.806 23.2063 37.5 24.1663 37.5C25.8583 37.5 27.3623 38.584 27.8963 40.19L28.3263 41.476M7.7763 31.806C9.56912 35.5336 12.591 38.53 16.3337 40.2912C20.0764 42.0523 24.3114 42.4707 28.3263 41.476M28.3263 41.476C32.6262 40.4093 36.3826 37.7963 38.8783 34.136M31.5003 18C31.5003 19.792 30.7143 21.4 29.4683 22.5" stroke="#222222" stroke-width="3" stroke-linecap="round" stroke-linejoin="round"/>
</svg>
