<svg width="21" height="20" viewBox="0 0 21 20" fill="none" xmlns="http://www.w3.org/2000/svg">
<path d="M13.625 4.3746C14.288 4.3746 14.9239 4.63799 15.3928 5.10683C15.8616 5.57567 16.125 6.21156 16.125 6.8746M18.625 6.8746C18.6251 7.60386 18.4657 8.32432 18.1579 8.98546C17.8502 9.6466 17.4015 10.2324 16.8434 10.7018C16.2853 11.1712 15.6313 11.5129 14.9272 11.7028C14.2231 11.8927 13.486 11.9263 12.7675 11.8013C12.2983 11.7204 11.8017 11.8229 11.465 12.1596L9.25 14.3746H7.375V16.2496H5.5V18.1246H2.375V15.7763C2.375 15.2788 2.5725 14.8013 2.92417 14.4504L8.34 9.0346C8.67667 8.69793 8.77917 8.20127 8.69833 7.7321C8.58016 7.04974 8.60503 6.35027 8.77136 5.67802C8.93768 5.00577 9.24184 4.37541 9.66456 3.82687C10.0873 3.27834 10.6193 2.82359 11.227 2.49146C11.8347 2.15933 12.5047 1.95706 13.1947 1.89746C13.8846 1.83786 14.5794 1.92223 15.2351 2.14523C15.8907 2.36823 16.4929 2.725 17.0034 3.19292C17.5139 3.66084 17.9217 4.2297 18.2008 4.86347C18.48 5.49724 18.6244 6.18208 18.625 6.8746Z" stroke="#52AB60" stroke-width="1.25" stroke-linecap="round" stroke-linejoin="round"/>
</svg>
