<svg width="26" height="26" viewBox="0 0 26 26" fill="none" xmlns="http://www.w3.org/2000/svg">
<path d="M7.3125 3.25V5.6875M18.6875 3.25V5.6875M3.25 20.3125V8.125C3.25 7.47853 3.50681 6.85855 3.96393 6.40143C4.42105 5.94431 5.04103 5.6875 5.6875 5.6875H20.3125C20.959 5.6875 21.579 5.94431 22.0361 6.40143C22.4932 6.85855 22.75 7.47853 22.75 8.125V20.3125M3.25 20.3125C3.25 20.959 3.50681 21.579 3.96393 22.0361C4.42105 22.4932 5.04103 22.75 5.6875 22.75H20.3125C20.959 22.75 21.579 22.4932 22.0361 22.0361C22.4932 21.579 22.75 20.959 22.75 20.3125M3.25 20.3125V12.1875C3.25 11.541 3.50681 10.921 3.96393 10.4639C4.42105 10.0068 5.04103 9.75 5.6875 9.75H20.3125C20.959 9.75 21.579 10.0068 22.0361 10.4639C22.4932 10.921 22.75 11.541 22.75 12.1875V20.3125" stroke="#575177" stroke-width="1.625" stroke-linecap="round" stroke-linejoin="round"/>
</svg>
