<svg width="53" height="52" viewBox="0 0 53 52" fill="none" xmlns="http://www.w3.org/2000/svg">
<rect x="0.833496" width="52" height="52" rx="26" fill="#EEF5FC"/>
<path fill-rule="evenodd" clip-rule="evenodd" d="M25.3168 17.6583C24.4205 17.6583 23.533 17.8349 22.7049 18.1779C21.8769 18.5209 21.1245 19.0236 20.4908 19.6573C19.857 20.2911 19.3543 21.0435 19.0113 21.8715C18.6683 22.6996 18.4918 23.5871 18.4918 24.4833C18.4918 25.3796 18.6683 26.2671 19.0113 27.0952C19.3543 27.9232 19.857 28.6756 20.4908 29.3094C21.1245 29.9431 21.8769 30.4458 22.7049 30.7888C23.533 31.1318 24.4205 31.3083 25.3168 31.3083C27.1269 31.3083 28.8628 30.5893 30.1428 29.3094C31.4227 28.0294 32.1418 26.2935 32.1418 24.4833C32.1418 22.6732 31.4227 20.9373 30.1428 19.6573C28.8628 18.3774 27.1269 17.6583 25.3168 17.6583ZM16.9751 24.4833C16.9753 23.1437 17.2981 21.8238 17.9162 20.6354C18.5344 19.4469 19.4297 18.4247 20.5264 17.6554C21.6231 16.8861 22.8889 16.3923 24.2168 16.2156C25.5448 16.039 26.8957 16.1848 28.1554 16.6406C29.4151 17.0965 30.5464 17.849 31.4537 18.8346C32.3611 19.8202 33.0177 21.0098 33.3681 22.3027C33.7184 23.5957 33.7523 24.9541 33.4666 26.2629C33.181 27.5717 32.5844 28.7925 31.7272 29.822L36.4693 34.5641C36.5438 34.6336 36.6036 34.7173 36.645 34.8103C36.6865 34.9033 36.7088 35.0037 36.7106 35.1056C36.7124 35.2074 36.6936 35.3085 36.6555 35.4029C36.6173 35.4974 36.5606 35.5831 36.4886 35.6552C36.4166 35.7272 36.3308 35.7839 36.2364 35.8221C36.1419 35.8602 36.0408 35.8789 35.939 35.8771C35.8371 35.8753 35.7367 35.8531 35.6437 35.8116C35.5507 35.7702 35.467 35.7104 35.3975 35.6359L30.6554 30.8938C29.4373 31.9084 27.9552 32.5549 26.3828 32.7575C24.8104 32.9601 23.2129 32.7105 21.7773 32.0378C20.3417 31.3651 19.1275 30.2972 18.277 28.9593C17.4265 27.6213 16.9749 26.0687 16.9751 24.4833Z" fill="#384AD2"/>
</svg>
