<svg width="17" height="16" viewBox="0 0 17 16" fill="none" xmlns="http://www.w3.org/2000/svg">
<path id="Combined Shape" fill-rule="evenodd" clip-rule="evenodd" d="M5.60004 0H11.6C14.361 0 16.6 2.239 16.6 5V11C16.6 13.761 14.361 16 11.6 16H5.60004C2.83904 16 0.600037 13.761 0.600037 11V5C0.600037 2.239 2.83904 0 5.60004 0ZM11.5998 14.5003C13.5298 14.5003 15.0998 12.9303 15.0998 11.0003V5.00033C15.0998 3.07033 13.5298 1.50033 11.5998 1.50033H5.59982C3.66982 1.50033 2.09982 3.07033 2.09982 5.00033V11.0003C2.09982 12.9303 3.66982 14.5003 5.59982 14.5003H11.5998ZM4.60004 8C4.60004 5.791 6.39104 4 8.60004 4C10.809 4 12.6 5.791 12.6 8C12.6 10.209 10.809 12 8.60004 12C6.39104 12 4.60004 10.209 4.60004 8ZM6.09982 8.00033C6.09982 9.37833 7.22182 10.5003 8.59982 10.5003C9.97782 10.5003 11.0998 9.37833 11.0998 8.00033C11.0998 6.62133 9.97782 5.50033 8.59982 5.50033C7.22182 5.50033 6.09982 6.62133 6.09982 8.00033ZM13.4332 3.69967C13.4332 3.99403 13.1945 4.23267 12.9002 4.23267C12.6058 4.23267 12.3672 3.99403 12.3672 3.69967C12.3672 3.4053 12.6058 3.16667 12.9002 3.16667C13.1945 3.16667 13.4332 3.4053 13.4332 3.69967Z" fill="#8F8FA7"/>
</svg>
