<svg width="24" height="25" viewBox="0 0 24 25" fill="none" xmlns="http://www.w3.org/2000/svg">
<path d="M13.5 21.5V14C13.5 13.8011 13.579 13.6103 13.7197 13.4697C13.8603 13.329 14.0511 13.25 14.25 13.25H17.25C17.4489 13.25 17.6397 13.329 17.7803 13.4697C17.921 13.6103 18 13.8011 18 14V21.5M13.5 21.5H2.35999M13.5 21.5H18M18 21.5H21.64M20.25 21.5V9.849C20.6486 9.61891 20.9889 9.30019 21.2446 8.91751C21.5003 8.53484 21.6645 8.09846 21.7245 7.64215C21.7846 7.18584 21.7388 6.72184 21.5908 6.28605C21.4428 5.85026 21.1965 5.45436 20.871 5.129L19.681 3.94C19.4 3.65862 19.0187 3.50035 18.621 3.5H5.37799C4.9803 3.50035 4.59903 3.65862 4.31799 3.94L3.12899 5.128C2.80423 5.45374 2.5586 5.8497 2.41106 6.28537C2.26351 6.72104 2.21799 7.18477 2.27799 7.64082C2.33799 8.09686 2.50191 8.53304 2.75713 8.91571C3.01234 9.29839 3.35202 9.61735 3.74999 9.848M3.74999 21.499V9.85C4.35001 10.196 5.05124 10.3238 5.73473 10.2117C6.41823 10.0996 7.04191 9.75451 7.49999 9.235C7.78129 9.55445 8.12749 9.81022 8.51548 9.98525C8.90348 10.1603 9.32434 10.2505 9.74999 10.25C10.646 10.25 11.45 9.857 12 9.234C12.2812 9.55363 12.6274 9.80959 13.0154 9.98479C13.4034 10.16 13.8243 10.2504 14.25 10.25C15.146 10.25 15.95 9.857 16.5 9.234C16.9582 9.75335 17.5819 10.0982 18.2654 10.2101C18.9489 10.322 19.6501 10.1941 20.25 9.848M6.74999 18.499H10.5C10.6989 18.499 10.8897 18.42 11.0303 18.2793C11.171 18.1387 11.25 17.9479 11.25 17.749V14C11.25 13.8011 11.171 13.6103 11.0303 13.4697C10.8897 13.329 10.6989 13.25 10.5 13.25H6.74999C6.55108 13.25 6.36031 13.329 6.21966 13.4697C6.07901 13.6103 5.99999 13.8011 5.99999 14V17.75C5.99999 18.165 6.33599 18.499 6.74999 18.499Z" stroke="#8F8FA7" stroke-width="1.5" stroke-linecap="round" stroke-linejoin="round"/>
</svg>
