<svg width="40" height="41" viewBox="0 0 40 41" fill="none" xmlns="http://www.w3.org/2000/svg">
<g id="user-circle/outline">
<path id="Vector" d="M29.9699 32.0399C28.8053 30.498 27.2986 29.2476 25.5685 28.3872C23.8384 27.5267 21.9321 27.0798 19.9999 27.0815C18.0676 27.0798 16.1613 27.5267 14.4312 28.3872C12.7011 29.2476 11.1944 30.498 10.0299 32.0399M29.9699 32.0399C32.2424 30.0185 33.8451 27.3541 34.5685 24.4C35.2919 21.4459 35.1003 18.3417 34.019 15.499C32.9376 12.6563 31.0177 10.2095 28.5139 8.48303C26.01 6.75657 23.0404 5.83203 19.999 5.83203C16.9576 5.83203 13.9881 6.75657 11.4842 8.48303C8.98032 10.2095 7.06041 12.6563 5.97908 15.499C4.89776 18.3417 4.70611 21.4459 5.42956 24.4C6.153 27.3541 7.75736 30.0185 10.0299 32.0399M29.9699 32.0399C27.2266 34.4868 23.6759 35.8368 19.9999 35.8315C16.3232 35.8372 12.7736 34.4872 10.0299 32.0399M24.9999 17.0815C24.9999 18.4076 24.4731 19.6794 23.5354 20.6171C22.5977 21.5548 21.3259 22.0815 19.9999 22.0815C18.6738 22.0815 17.402 21.5548 16.4643 20.6171C15.5266 19.6794 14.9999 18.4076 14.9999 17.0815C14.9999 15.7555 15.5266 14.4837 16.4643 13.546C17.402 12.6083 18.6738 12.0815 19.9999 12.0815C21.3259 12.0815 22.5977 12.6083 23.5354 13.546C24.4731 14.4837 24.9999 15.7555 24.9999 17.0815Z" stroke="#384AD2" stroke-width="2.3125" stroke-linecap="round" stroke-linejoin="round"/>
</g>
</svg>
