<svg width="21" height="20" viewBox="0 0 21 20" fill="none" xmlns="http://www.w3.org/2000/svg">
<g id="rocket-launch/outline">
<path id="Vector" d="M13.4917 11.975C13.6652 12.7092 13.6703 13.4732 13.5066 14.2097C13.343 14.9462 13.0148 15.6361 12.5466 16.2277C12.0784 16.8193 11.4824 17.2973 10.8033 17.6259C10.1241 17.9545 9.37945 18.1251 8.625 18.125V14.125M13.4917 11.975C15.0832 10.8157 16.378 9.29625 17.2701 7.5409C18.1623 5.78556 18.6266 3.84406 18.625 1.875C16.6561 1.87358 14.7148 2.33791 12.9596 3.23006C11.2044 4.12221 9.6851 5.41688 8.52583 7.00834M13.4917 11.975C12.0433 13.0344 10.3836 13.7678 8.625 14.125M8.625 14.125C8.53917 14.1425 8.4525 14.1592 8.36583 14.175C7.60982 13.5755 6.92532 12.891 6.32583 12.135C6.34158 12.0482 6.35741 11.9615 6.375 11.875M8.52583 7.00834C7.79155 6.83467 7.02748 6.82944 6.29089 6.99304C5.5543 7.15664 4.86428 7.48483 4.27256 7.95301C3.68084 8.4212 3.20275 9.01723 2.87412 9.69645C2.5455 10.3757 2.37486 11.1205 2.375 11.875H6.375M8.52583 7.00834C7.46657 8.45651 6.73229 10.1167 6.375 11.875M4.50917 13.8667C3.96098 14.2743 3.53477 14.8241 3.27669 15.4567C3.0186 16.0892 2.93848 16.7802 3.045 17.455C3.71986 17.5614 4.41097 17.4812 5.04348 17.2229C5.67599 16.9647 6.2258 16.5383 6.63333 15.99M14.25 7.5C14.25 7.83152 14.1183 8.14947 13.8839 8.38389C13.6495 8.61831 13.3315 8.75 13 8.75C12.6685 8.75 12.3505 8.61831 12.1161 8.38389C11.8817 8.14947 11.75 7.83152 11.75 7.5C11.75 7.16848 11.8817 6.85054 12.1161 6.61612C12.3505 6.3817 12.6685 6.25 13 6.25C13.3315 6.25 13.6495 6.3817 13.8839 6.61612C14.1183 6.85054 14.25 7.16848 14.25 7.5Z" stroke="#FC6B02" stroke-width="1.25" stroke-linecap="round" stroke-linejoin="round"/>
</g>
</svg>
