<svg width="24" height="24" viewBox="0 0 24 24" fill="none" xmlns="http://www.w3.org/2000/svg">
<path d="M11.4799 3.499C11.5222 3.39583 11.5942 3.30758 11.6868 3.24546C11.7794 3.18334 11.8884 3.15018 11.9999 3.15018C12.1114 3.15018 12.2204 3.18334 12.313 3.24546C12.4056 3.30758 12.4776 3.39583 12.5199 3.499L14.6449 8.61C14.6847 8.70564 14.7501 8.78844 14.8339 8.84931C14.9177 8.91018 15.0167 8.94675 15.1199 8.955L20.6379 9.397C21.1369 9.437 21.3389 10.06 20.9589 10.385L16.7549 13.987C16.6764 14.0542 16.6178 14.1417 16.5857 14.24C16.5536 14.3382 16.5492 14.4434 16.5729 14.544L17.8579 19.929C17.8837 20.037 17.877 20.1503 17.8385 20.2545C17.7999 20.3587 17.7314 20.4491 17.6415 20.5144C17.5517 20.5797 17.4444 20.6169 17.3335 20.6212C17.2225 20.6256 17.1126 20.597 17.0179 20.539L12.2929 17.654C12.2046 17.6002 12.1033 17.5717 11.9999 17.5717C11.8965 17.5717 11.7952 17.6002 11.7069 17.654L6.98191 20.54C6.88716 20.598 6.77736 20.6266 6.66636 20.6222C6.55537 20.6179 6.44816 20.5807 6.35827 20.5154C6.26839 20.4501 6.19987 20.3597 6.16136 20.2555C6.12285 20.1513 6.11608 20.038 6.14191 19.93L7.42691 14.544C7.45074 14.4434 7.44636 14.3382 7.41425 14.2399C7.38214 14.1416 7.32354 14.0541 7.24491 13.987L3.04091 10.385C2.95672 10.3126 2.89582 10.2169 2.86586 10.11C2.8359 10.0031 2.83821 9.88974 2.87252 9.78415C2.90683 9.67855 2.9716 9.58546 3.05867 9.51657C3.14575 9.44769 3.25125 9.40609 3.36191 9.397L8.87991 8.955C8.98316 8.94675 9.08213 8.91018 9.16593 8.84931C9.24974 8.78844 9.31513 8.70564 9.35491 8.61L11.4799 3.499Z" stroke="#8F8FA7" stroke-width="1.5" stroke-linecap="round" stroke-linejoin="round"/>
</svg>
