<svg width="9" height="21" viewBox="0 0 9 21" fill="none" xmlns="http://www.w3.org/2000/svg">
<g id="trash/outline">
<path id="Vector" d="M12.7833 8.00043L12.495 15.5004M8.505 15.5004L8.21667 8.00043M16.5233 5.32543C16.8083 5.36877 17.0917 5.4146 17.375 5.46377M16.5233 5.32543L15.6333 16.8946C15.597 17.3656 15.3842 17.8056 15.0375 18.1265C14.6908 18.4474 14.2358 18.6256 13.7633 18.6254H7.23667C6.76425 18.6256 6.30919 18.4474 5.96248 18.1265C5.61578 17.8056 5.40299 17.3656 5.36667 16.8946L4.47667 5.32543M16.5233 5.32543C15.5616 5.18003 14.5948 5.06968 13.625 4.9946M4.47667 5.32543C4.19167 5.36793 3.90833 5.41377 3.625 5.46293M4.47667 5.32543C5.43844 5.18003 6.4052 5.06968 7.375 4.9946M13.625 4.9946V4.23127C13.625 3.24793 12.8667 2.42793 11.8833 2.3971C10.9613 2.36763 10.0387 2.36763 9.11667 2.3971C8.13333 2.42793 7.375 3.24877 7.375 4.23127V4.9946M13.625 4.9946C11.5448 4.83383 9.45523 4.83383 7.375 4.9946" stroke="#EA3959" stroke-width="1.25" stroke-linecap="round" stroke-linejoin="round"/>
</g>
</svg>
