<svg width="24" height="24" viewBox="0 0 24 24" fill="none" xmlns="http://www.w3.org/2000/svg">
<path d="M4.5 12C4.5 13.9891 5.29018 15.8968 6.6967 17.3033C8.10322 18.7098 10.0109 19.5 12 19.5C13.9891 19.5 15.8968 18.7098 17.3033 17.3033C18.7098 15.8968 19.5 13.9891 19.5 12M4.5 12C4.5 10.0109 5.29018 8.10325 6.6967 6.69672C8.10322 5.2902 10.0109 4.50002 12 4.50002C13.9891 4.50002 15.8968 5.2902 17.3033 6.69672C18.7098 8.10325 19.5 10.0109 19.5 12M4.5 12H3M19.5 12H21M19.5 12H12L7.5 4.20502M3.543 15.077L4.953 14.564M19.048 9.43402L20.458 8.92102M5.106 17.785L6.256 16.821M17.746 7.17902L18.895 6.21502M7.501 19.795L8.251 18.495L12.002 12M15.751 5.50502L16.501 4.20502M10.438 20.863L10.698 19.386M13.303 4.61402L13.563 3.13702M13.563 20.863L13.303 19.386M10.698 4.61402L10.438 3.13702M16.5 19.794L15.75 18.495M18.894 17.785L17.745 16.821M6.256 7.17802L5.106 6.21402M20.458 15.078L19.048 14.565M4.954 9.43502L3.544 8.92102" stroke="#8F8FA7" stroke-width="1.5" stroke-linecap="round" stroke-linejoin="round"/>
</svg>
