<svg width="24" height="25" viewBox="0 0 24 25" fill="none" xmlns="http://www.w3.org/2000/svg">
<path d="M17.982 19.225C17.2833 18.2999 16.3793 17.5496 15.3412 17.0334C14.3031 16.5171 13.1594 16.2489 12 16.25C10.8407 16.2489 9.6969 16.5171 8.65883 17.0334C7.62077 17.5496 6.71675 18.2999 6.01801 19.225M17.982 19.225C19.3455 18.0122 20.3071 16.4136 20.7412 14.6411C21.1753 12.8686 21.0603 11.0061 20.4115 9.30048C19.7627 7.59487 18.6107 6.12678 17.1084 5.0909C15.6061 4.05502 13.8244 3.50029 11.9995 3.50029C10.1747 3.50029 8.39295 4.05502 6.89062 5.0909C5.38829 6.12678 4.23634 7.59487 3.58755 9.30048C2.93875 11.0061 2.82376 12.8686 3.25783 14.6411C3.6919 16.4136 4.65451 18.0122 6.01801 19.225M17.982 19.225C16.336 20.6932 14.2056 21.5031 12 21.5C9.79404 21.5034 7.66425 20.6934 6.01801 19.225M15 10.25C15 11.0456 14.6839 11.8087 14.1213 12.3713C13.5587 12.9339 12.7957 13.25 12 13.25C11.2044 13.25 10.4413 12.9339 9.87869 12.3713C9.31608 11.8087 9.00001 11.0456 9.00001 10.25C9.00001 9.45435 9.31608 8.69129 9.87869 8.12868C10.4413 7.56607 11.2044 7.25 12 7.25C12.7957 7.25 13.5587 7.56607 14.1213 8.12868C14.6839 8.69129 15 9.45435 15 10.25Z" stroke="#8F8FA7" stroke-width="1.5" stroke-linecap="round" stroke-linejoin="round"/>
</svg>
