<svg width="18" height="18" viewBox="0 0 18 18" fill="none" xmlns="http://www.w3.org/2000/svg">
<path d="M13.0517 2.73937L14.4575 1.33271C14.7506 1.03964 15.148 0.875 15.5625 0.875C15.977 0.875 16.3744 1.03964 16.6675 1.33271C16.9606 1.62577 17.1252 2.02325 17.1252 2.43771C17.1252 2.85216 16.9606 3.24964 16.6675 3.54271L7.81833 12.3919C7.37777 12.8322 6.83447 13.1558 6.2375 13.3335L4 14.0002L4.66667 11.7627C4.8444 11.1657 5.16803 10.6224 5.60833 10.1819L13.0517 2.73937ZM13.0517 2.73937L15.25 4.93771M14 10.6669V14.6252C14 15.1225 13.8025 15.5994 13.4508 15.951C13.0992 16.3027 12.6223 16.5002 12.125 16.5002H3.375C2.87772 16.5002 2.40081 16.3027 2.04917 15.951C1.69754 15.5994 1.5 15.1225 1.5 14.6252V5.87521C1.5 5.37792 1.69754 4.90101 2.04917 4.54938C2.40081 4.19775 2.87772 4.00021 3.375 4.00021H7.33333" stroke="#384AD2" stroke-width="1.25" stroke-linecap="round" stroke-linejoin="round"/>
</svg>
