<svg width="12" height="15" viewBox="0 0 12 15" fill="none" xmlns="http://www.w3.org/2000/svg">
<path d="M6 7.49994C6.4125 7.49994 6.76563 7.35306 7.05938 7.05931C7.35313 6.76556 7.5 6.41244 7.5 5.99994C7.5 5.58744 7.35313 5.23431 7.05938 4.94056C6.76563 4.64681 6.4125 4.49994 6 4.49994C5.5875 4.49994 5.23438 4.64681 4.94063 4.94056C4.64687 5.23431 4.5 5.58744 4.5 5.99994C4.5 6.41244 4.64687 6.76556 4.94063 7.05931C5.23438 7.35306 5.5875 7.49994 6 7.49994ZM6 14.9999C3.9875 13.2874 2.48438 11.6968 1.49063 10.2281C0.496875 8.75931 0 7.39994 0 6.14994C0 4.27494 0.603125 2.78119 1.80938 1.66869C3.01563 0.556189 4.4125 -6.10352e-05 6 -6.10352e-05C7.5875 -6.10352e-05 8.98438 0.556189 10.1906 1.66869C11.3969 2.78119 12 4.27494 12 6.14994C12 7.39994 11.5031 8.75931 10.5094 10.2281C9.51562 11.6968 8.0125 13.2874 6 14.9999Z" fill="#EA3959"/>
</svg>
