<svg width="21" height="20" viewBox="0 0 21 20" fill="none" xmlns="http://www.w3.org/2000/svg">
<path d="M13.8742 6.875C14.04 6.875 14.1989 6.94085 14.3161 7.05806C14.4333 7.17527 14.4992 7.33424 14.4992 7.5C14.4992 8.43333 14.0892 9.27167 13.4409 9.84333C13.3799 9.90091 13.308 9.94563 13.2294 9.97483C13.1508 10.004 13.0671 10.0171 12.9833 10.0133C12.8996 10.0095 12.8174 9.98887 12.7418 9.95266C12.6662 9.91645 12.5986 9.86539 12.5431 9.80252C12.4876 9.73965 12.4454 9.66626 12.4188 9.58672C12.3923 9.50718 12.382 9.42311 12.3887 9.33952C12.3953 9.25593 12.4187 9.17453 12.4574 9.10017C12.4962 9.02581 12.5495 8.96 12.6142 8.90667C12.8141 8.73093 12.9741 8.51452 13.0837 8.27193C13.1932 8.02934 13.2496 7.76616 13.2492 7.5C13.2492 7.33424 13.315 7.17527 13.4323 7.05806C13.5495 6.94085 13.7084 6.875 13.8742 6.875Z" fill="#52AB60"/>
<path fill-rule="evenodd" clip-rule="evenodd" d="M10.75 1.875C6.2625 1.875 2.625 5.5125 2.625 10C2.625 14.4875 6.2625 18.125 10.75 18.125C15.2375 18.125 18.875 14.4875 18.875 10C18.875 5.5125 15.2375 1.875 10.75 1.875ZM4.5625 13C5.24605 14.4106 6.39113 15.5453 7.80793 16.216C9.22474 16.8866 10.8282 17.053 12.3525 16.6875C12.2353 16.3754 12.0258 16.1065 11.7518 15.9167C11.4778 15.7269 11.1525 15.6251 10.8192 15.625C10.6251 15.6251 10.4374 15.5562 10.2893 15.4308C10.1413 15.3053 10.0426 15.1314 10.0108 14.94L9.95 14.5758C9.87167 14.105 10.1583 13.6508 10.6167 13.52L11.4417 13.285C11.7975 13.1825 12.0942 12.9367 12.26 12.605L12.29 12.5442C12.3758 12.3725 12.5012 12.2236 12.6559 12.1099C12.8106 11.9962 12.99 11.9209 13.1795 11.8902C13.369 11.8595 13.5631 11.8743 13.7457 11.9334C13.9284 11.9925 14.0944 12.0941 14.23 12.23L14.5 12.5H15.0233C15.3624 12.4999 15.6951 12.5918 15.9861 12.7658C16.2771 12.9399 16.5155 13.1896 16.6758 13.4883C17.2632 12.4907 17.5891 11.3609 17.6233 10.2036C17.6575 9.04644 17.399 7.89933 16.8716 6.86871C16.3442 5.83809 15.5651 4.95733 14.6066 4.30812C13.648 3.65891 12.5411 3.26227 11.3883 3.155C11.425 3.37333 11.5383 3.57417 11.7125 3.71833L12.6025 4.46C12.9708 4.7675 13.0483 5.30167 12.7825 5.70167L12.3575 6.34C12.1261 6.68684 11.7856 6.94665 11.39 7.07833L11.2708 7.11833C11.1364 7.16329 11.0141 7.23864 10.9135 7.33853C10.8128 7.43841 10.7366 7.56015 10.6906 7.69428C10.6447 7.82841 10.6303 7.97132 10.6485 8.11193C10.6668 8.25253 10.7172 8.38704 10.7958 8.505C11.1033 8.9675 10.9367 9.59417 10.44 9.8425L8.25 10.9375L8.6025 11.82C8.67359 11.9992 8.67726 12.1982 8.61283 12.3799C8.54841 12.5617 8.42025 12.7139 8.25213 12.8083C8.08402 12.9027 7.88736 12.933 7.69863 12.8935C7.5099 12.8539 7.34192 12.7473 7.22583 12.5933L6.66 11.8383C6.5641 11.7105 6.43714 11.6094 6.29115 11.5444C6.14517 11.4795 5.98501 11.453 5.82589 11.4673C5.66676 11.4817 5.51394 11.5365 5.38194 11.6265C5.24994 11.7165 5.14314 11.8388 5.07167 11.9817L4.5625 13Z" fill="#52AB60"/>
</svg>
