<svg width="263" height="40" viewBox="0 0 263 40" fill="none" xmlns="http://www.w3.org/2000/svg">
<path d="M15.3125 5.67578C19.0885 5.67578 22.3242 7.04948 25.0195 9.79688C27.7279 12.5443 29.082 15.832 29.082 19.6602C29.082 23.5534 27.7214 26.8607 25 29.582C22.2786 32.3034 18.9714 33.6641 15.0781 33.6641C11.2109 33.6641 7.91016 32.2969 5.17578 29.5625C2.44141 26.8281 1.07422 23.5273 1.07422 19.6602C1.07422 15.7539 2.44792 12.4466 5.19531 9.73828C7.95573 7.02995 11.3281 5.67578 15.3125 5.67578ZM15.0781 13.5273C13.4505 13.5273 12.0638 14.1263 10.918 15.3242C9.77214 16.5221 9.19922 17.9674 9.19922 19.6602C9.19922 21.3529 9.77214 22.7982 10.918 23.9961C12.0768 25.194 13.4635 25.793 15.0781 25.793C16.7188 25.793 18.1055 25.2005 19.2383 24.0156C20.3841 22.8177 20.957 21.3659 20.957 19.6602C20.957 17.9544 20.3841 16.5091 19.2383 15.3242C18.1055 14.1263 16.7188 13.5273 15.0781 13.5273ZM38.7891 6.33984V13.8008H42.0703V21.5156H38.7891C38.7891 23.0651 39.0299 24.1328 39.5117 24.7188C40.0065 25.3047 40.9049 25.5977 42.207 25.5977V33.2734C41.8294 33.2865 41.5495 33.293 41.3672 33.293C39.7135 33.293 38.151 32.9089 36.6797 32.1406C35.2214 31.3724 34.0495 30.3307 33.1641 29.0156C32.0443 27.3359 31.4844 25.1094 31.4844 22.3359V6.33984H38.7891ZM54.9219 13.1172C57.6823 13.1172 60.0456 14.1133 62.0117 16.1055C63.9909 18.0846 64.9805 20.4609 64.9805 23.2344C64.9805 26.0469 63.9779 28.4427 61.9727 30.4219C59.9805 32.401 57.5716 33.3906 54.7461 33.3906C51.9206 33.3906 49.5052 32.401 47.5 30.4219C45.4948 28.4297 44.4922 26.0339 44.4922 23.2344C44.4922 20.3828 45.4948 17.987 47.5 16.0469C49.5052 14.0938 51.9792 13.1172 54.9219 13.1172ZM54.7266 20.3242C53.9453 20.3242 53.2812 20.6107 52.7344 21.1836C52.1875 21.7435 51.9141 22.4336 51.9141 23.2539C51.9141 24.0612 52.1875 24.7513 52.7344 25.3242C53.2943 25.8971 53.9583 26.1836 54.7266 26.1836C55.5078 26.1836 56.1719 25.8971 56.7188 25.3242C57.2786 24.7513 57.5586 24.0612 57.5586 23.2539C57.5586 22.4336 57.2852 21.7435 56.7383 21.1836C56.1914 20.6107 55.5208 20.3242 54.7266 20.3242Z" fill="url(#paint0_linear_8461_9025)"/>
<path d="M94.7461 33H87.4414V22.4922C87.4414 21.6849 87.3568 21.125 87.1875 20.8125C87.0182 20.5 86.7122 20.3438 86.2695 20.3438C85.4492 20.3438 85.0391 21.0664 85.0391 22.5117V33H77.7344V22.4922C77.7344 21.6849 77.6432 21.125 77.4609 20.8125C77.2917 20.5 76.9857 20.3438 76.543 20.3438C75.7357 20.3438 75.332 21.0664 75.332 22.5117V33H68.0273V21.0078C68.0273 18.8203 68.763 16.9648 70.2344 15.4414C71.7057 13.9049 73.4896 13.1367 75.5859 13.1367C77.7474 13.1367 79.6875 14.0482 81.4062 15.8711C83.3203 14.0482 85.2344 13.1367 87.1484 13.1367C89.5833 13.1367 91.5365 14.0221 93.0078 15.793C94.1667 17.1732 94.7461 19.1849 94.7461 21.8281V33ZM109.863 25.6953V33.2539C109.264 33.3581 108.717 33.4102 108.223 33.4102C105.293 33.4102 102.852 32.4466 100.898 30.5195C98.9453 28.5924 97.9688 26.1771 97.9688 23.2734C97.9688 20.4479 98.9518 18.0521 100.918 16.0859C102.897 14.1198 105.299 13.1367 108.125 13.1367C111.276 13.1367 113.757 14.0612 115.566 15.9102C117.389 17.7461 118.301 20.2591 118.301 23.4492V33H110.996V23.9766C110.996 22.9479 110.742 22.1276 110.234 21.5156C109.74 20.9036 109.069 20.5977 108.223 20.5977C107.454 20.5977 106.79 20.8776 106.23 21.4375C105.671 21.9974 105.391 22.6615 105.391 23.4297C105.391 24.237 105.645 24.901 106.152 25.4219C106.66 25.9427 107.305 26.2031 108.086 26.2031C108.724 26.2031 109.316 26.0339 109.863 25.6953ZM134.766 13.8008V21.4961C133.737 21.4961 133.027 21.6914 132.637 22.082C132.259 22.4596 132.018 23.2148 131.914 24.3477C131.576 28.1107 130.117 30.7669 127.539 32.3164C126.172 33.1237 124.232 33.5273 121.719 33.5273H120.703V25.793H121.035C122.207 25.793 123.04 25.5521 123.535 25.0703C124.043 24.5755 124.336 23.7161 124.414 22.4922C124.518 20.5 124.701 19.1003 124.961 18.293C125.234 17.4857 125.781 16.6849 126.602 15.8906C128.034 14.4974 130.02 13.8008 132.559 13.8008H134.766Z" fill="url(#paint1_linear_8461_9025)"/>
<path d="M147.758 27.5H146.064L149.146 18.7695H151.092L154.168 27.5H152.48L150.148 20.5625H150.078L147.758 27.5ZM147.816 24.0781H152.416V25.3438H147.816V24.0781ZM158.859 24.752V20.9492H160.4V27.5H158.905V26.334H158.835C158.687 26.7012 158.444 27.002 158.109 27.2363C157.773 27.4707 157.359 27.5859 156.866 27.582C156.437 27.582 156.058 27.4883 155.73 27.3008C155.405 27.1094 155.15 26.8301 154.962 26.4629C154.778 26.0918 154.687 25.6445 154.687 25.1211V20.9492H156.228V24.8867C156.228 25.2969 156.341 25.625 156.568 25.8711C156.798 26.1172 157.099 26.2383 157.47 26.2344C157.696 26.2344 157.915 26.1797 158.126 26.0703C158.341 25.9609 158.517 25.7969 158.653 25.5781C158.79 25.3594 158.859 25.084 158.859 24.752ZM164.686 20.9492V22.1445H160.93V20.9492H164.686ZM161.85 19.3906H163.391V25.5312C163.391 25.7891 163.448 25.9805 163.561 26.1055C163.674 26.2266 163.854 26.2871 164.1 26.2871C164.166 26.2871 164.24 26.2812 164.323 26.2695C164.405 26.2578 164.479 26.2441 164.545 26.2285L164.809 27.4355C164.645 27.4863 164.479 27.5234 164.311 27.5469C164.143 27.5742 163.975 27.5879 163.807 27.5879C163.198 27.5879 162.719 27.4277 162.371 27.1074C162.024 26.7832 161.85 26.3418 161.85 25.7832V19.3906ZM168.199 27.6289C167.558 27.6289 167.003 27.4883 166.535 27.207C166.066 26.9258 165.702 26.5312 165.445 26.0234C165.191 25.5156 165.064 24.9258 165.064 24.2539C165.064 23.5781 165.191 22.9863 165.445 22.4785C165.702 21.9668 166.066 21.5703 166.535 21.2891C167.003 21.0078 167.558 20.8672 168.199 20.8672C168.839 20.8672 169.394 21.0078 169.863 21.2891C170.331 21.5703 170.695 21.9668 170.952 22.4785C171.21 22.9863 171.339 23.5781 171.339 24.2539C171.339 24.9258 171.21 25.5156 170.952 26.0234C170.695 26.5312 170.331 26.9258 169.863 27.207C169.394 27.4883 168.839 27.6289 168.199 27.6289ZM168.199 26.3867C168.554 26.3867 168.847 26.293 169.077 26.1055C169.308 25.9141 169.48 25.6562 169.593 25.332C169.71 25.0078 169.769 24.6484 169.769 24.2539C169.769 23.8516 169.71 23.4883 169.593 23.1641C169.48 22.8398 169.308 22.584 169.077 22.3965C168.847 22.2051 168.554 22.1094 168.199 22.1094C167.851 22.1094 167.56 22.2051 167.326 22.3965C167.091 22.584 166.915 22.8398 166.798 23.1641C166.685 23.4883 166.628 23.8516 166.628 24.2539C166.628 24.6484 166.685 25.0078 166.798 25.332C166.915 25.6562 167.091 25.9141 167.326 26.1055C167.56 26.293 167.851 26.3867 168.199 26.3867ZM178.371 27.6172C177.57 27.6172 176.865 27.4355 176.255 27.0723C175.65 26.709 175.177 26.1934 174.837 25.5254C174.498 24.8574 174.328 24.0645 174.328 23.1465C174.328 22.209 174.502 21.4043 174.849 20.7324C175.201 20.0605 175.677 19.5469 176.279 19.1914C176.88 18.832 177.562 18.6523 178.324 18.6523C178.808 18.6523 179.257 18.7227 179.671 18.8633C180.089 19.0039 180.461 19.2051 180.785 19.4668C181.109 19.7246 181.375 20.0312 181.582 20.3867C181.793 20.7422 181.933 21.1328 182.004 21.5586H180.392C180.322 21.3281 180.224 21.1211 180.099 20.9375C179.978 20.7539 179.83 20.5977 179.654 20.4688C179.482 20.3359 179.287 20.2363 179.068 20.1699C178.849 20.1035 178.607 20.0703 178.341 20.0703C177.877 20.0703 177.461 20.1895 177.093 20.4277C176.726 20.6621 176.437 21.0078 176.226 21.4648C176.019 21.918 175.916 22.4727 175.916 23.1289C175.916 23.7891 176.019 24.3477 176.226 24.8047C176.433 25.2617 176.722 25.6094 177.093 25.8477C177.464 26.082 177.894 26.1992 178.382 26.1992C178.824 26.1992 179.207 26.1152 179.531 25.9473C179.855 25.7754 180.105 25.5332 180.281 25.2207C180.457 24.9082 180.545 24.5391 180.545 24.1133L180.908 24.1719H178.535V22.9355H182.08V23.9785C182.08 24.7285 181.921 25.375 181.605 25.918C181.289 26.4609 180.849 26.8809 180.287 27.1777C179.728 27.4707 179.089 27.6172 178.371 27.6172ZM184.86 27.6348C184.442 27.6348 184.067 27.5605 183.735 27.4121C183.403 27.2598 183.141 27.0371 182.95 26.7441C182.759 26.4512 182.663 26.0898 182.663 25.6602C182.663 25.293 182.731 24.9883 182.868 24.7461C183.005 24.5039 183.19 24.3105 183.425 24.166C183.663 24.0215 183.93 23.9121 184.227 23.8379C184.524 23.7598 184.831 23.7051 185.147 23.6738C185.534 23.6309 185.846 23.5938 186.085 23.5625C186.323 23.5312 186.495 23.4805 186.6 23.4102C186.71 23.3398 186.764 23.2305 186.764 23.082V23.0527C186.764 22.7363 186.671 22.4902 186.483 22.3145C186.296 22.1387 186.022 22.0508 185.663 22.0508C185.284 22.0508 184.983 22.1328 184.76 22.2969C184.542 22.4609 184.393 22.6543 184.315 22.877L182.88 22.6719C182.993 22.2734 183.18 21.9414 183.442 21.6758C183.704 21.4062 184.022 21.2051 184.397 21.0723C184.776 20.9355 185.194 20.8672 185.651 20.8672C185.964 20.8672 186.276 20.9043 186.589 20.9785C186.901 21.0488 187.188 21.1699 187.45 21.3418C187.712 21.5137 187.921 21.7441 188.077 22.0332C188.233 22.3223 188.311 22.6836 188.311 23.1172V27.5H186.829V26.5977H186.782C186.688 26.7773 186.555 26.9473 186.384 27.1074C186.216 27.2637 186.005 27.3906 185.751 27.4883C185.501 27.5859 185.204 27.6348 184.86 27.6348ZM185.253 26.498C185.565 26.498 185.835 26.4375 186.061 26.3164C186.288 26.1914 186.464 26.0273 186.589 25.8242C186.714 25.6172 186.776 25.3926 186.776 25.1504V24.3828C186.725 24.4219 186.643 24.459 186.53 24.4941C186.417 24.5254 186.288 24.5547 186.143 24.582C185.999 24.6094 185.856 24.6328 185.716 24.6523C185.579 24.6719 185.46 24.6875 185.358 24.6992C185.128 24.7305 184.921 24.7832 184.737 24.8574C184.557 24.9277 184.415 25.0254 184.309 25.1504C184.204 25.2754 184.151 25.4375 184.151 25.6367C184.151 25.9219 184.255 26.1367 184.462 26.2812C184.669 26.4258 184.932 26.498 185.253 26.498ZM190.875 18.7695V27.5H189.334V18.7695H190.875ZM193.438 18.7695V27.5H191.897V18.7695H193.438ZM197.361 27.6289C196.705 27.6289 196.139 27.4922 195.662 27.2188C195.186 26.9414 194.818 26.5508 194.561 26.0469C194.307 25.543 194.18 24.9492 194.18 24.2656C194.18 23.5898 194.307 22.998 194.561 22.4902C194.815 21.9785 195.172 21.5801 195.633 21.2949C196.094 21.0098 196.637 20.8672 197.262 20.8672C197.664 20.8672 198.045 20.9316 198.404 21.0605C198.768 21.1895 199.088 21.3887 199.365 21.6582C199.647 21.9277 199.867 22.2715 200.027 22.6895C200.188 23.1035 200.268 23.5977 200.268 24.1719V24.6523H194.9V23.6152H199.5L198.779 23.9199C198.779 23.5488 198.723 23.2266 198.609 22.9531C198.496 22.6758 198.328 22.459 198.106 22.3027C197.883 22.1465 197.606 22.0684 197.274 22.0684C196.941 22.0684 196.658 22.1465 196.424 22.3027C196.19 22.459 196.012 22.6699 195.891 22.9355C195.77 23.1973 195.709 23.4902 195.709 23.8145V24.5352C195.709 24.9336 195.777 25.2754 195.914 25.5605C196.055 25.8418 196.25 26.0566 196.5 26.2051C196.754 26.3535 197.049 26.4277 197.385 26.4277C197.604 26.4277 197.803 26.3965 197.982 26.334C198.166 26.2715 198.322 26.1777 198.451 26.0527C198.584 25.9238 198.686 25.7656 198.756 25.5781L200.197 25.748C200.104 26.127 199.93 26.459 199.676 26.7441C199.426 27.0254 199.104 27.2441 198.709 27.4004C198.318 27.5527 197.869 27.6289 197.361 27.6289ZM200.986 27.5V20.9492H202.48V22.0508H202.55C202.667 21.668 202.872 21.375 203.165 21.1719C203.458 20.9648 203.792 20.8613 204.167 20.8613C204.249 20.8613 204.343 20.8652 204.448 20.873C204.558 20.8809 204.648 20.8906 204.718 20.9023V22.3203C204.652 22.2969 204.548 22.2773 204.407 22.2617C204.267 22.2461 204.132 22.2383 204.003 22.2383C203.718 22.2383 203.464 22.2988 203.241 22.4199C203.019 22.541 202.843 22.707 202.714 22.918C202.589 23.1289 202.527 23.375 202.527 23.6562V27.5H200.986ZM206.338 29.9492C206.127 29.9531 205.932 29.9375 205.752 29.9023C205.576 29.8711 205.434 29.834 205.325 29.791L205.688 28.5898L205.764 28.6133C206.076 28.6953 206.342 28.7012 206.561 28.6309C206.784 28.5605 206.961 28.3477 207.094 27.9922L207.223 27.6406L204.856 20.9492H206.491L207.996 25.9004H208.067L209.578 20.9492H211.225L208.6 28.291C208.479 28.6387 208.319 28.9355 208.119 29.1816C207.92 29.4316 207.674 29.6211 207.381 29.75C207.088 29.8828 206.741 29.9492 206.338 29.9492ZM213.733 27.5L215.174 18.7695H220.653L220.465 19.9004H216.305L215.866 22.5664H219.733L219.545 23.6973H215.678L215.233 26.3691H219.44L219.253 27.5H213.733ZM220.34 27.5L221.781 18.7695H224.898C225.574 18.7695 226.115 18.8867 226.521 19.1211C226.931 19.3555 227.213 19.6777 227.365 20.0879C227.517 20.498 227.55 20.9727 227.465 21.5117C227.379 22.043 227.189 22.5117 226.896 22.918C226.603 23.3203 226.215 23.6348 225.73 23.8613C225.246 24.084 224.666 24.1953 223.99 24.1953H221.629L221.834 23.0703H224.06C224.49 23.0664 224.847 23.0039 225.132 22.8828C225.422 22.7578 225.648 22.5801 225.812 22.3496C225.976 22.1152 226.084 21.8359 226.134 21.5117C226.216 21.0117 226.138 20.6191 225.9 20.334C225.662 20.0449 225.218 19.9004 224.57 19.9004H222.918L221.658 27.5H220.34ZM225.302 27.5L223.838 23.5566H225.291L226.797 27.5H225.302ZM227.485 27.5L228.927 18.7695H232.044C232.72 18.7695 233.259 18.8945 233.661 19.1445C234.067 19.3906 234.346 19.7266 234.499 20.1523C234.651 20.5781 234.682 21.0605 234.593 21.5996C234.503 22.1348 234.311 22.6172 234.018 23.0469C233.725 23.4727 233.335 23.8105 232.846 24.0605C232.358 24.3066 231.776 24.4297 231.1 24.4297H228.95L229.143 23.3164H231.159C231.589 23.3164 231.95 23.2422 232.243 23.0938C232.536 22.9414 232.766 22.7363 232.934 22.4785C233.102 22.2168 233.212 21.9238 233.262 21.5996C233.321 21.2637 233.307 20.9688 233.221 20.7148C233.139 20.4609 232.977 20.2617 232.735 20.1172C232.493 19.9727 232.153 19.9004 231.716 19.9004H230.063L228.804 27.5H227.485Z" fill="#8F8FA7"/>
<defs>
<linearGradient id="paint0_linear_8461_9025" x1="0" y1="20" x2="136" y2="20" gradientUnits="userSpaceOnUse">
<stop stop-color="#5379E8"/>
<stop offset="0.705017" stop-color="#384AD2"/>
</linearGradient>
<linearGradient id="paint1_linear_8461_9025" x1="0" y1="20" x2="136" y2="20" gradientUnits="userSpaceOnUse">
<stop/>
<stop offset="1" stop-color="#3B3737"/>
</linearGradient>
</defs>
</svg>
