<svg xmlns="http://www.w3.org/2000/svg" width="291" height="379" viewBox="0 0 291 379" fill="none">
<path id="Vector" fill-rule="evenodd" clip-rule="evenodd" d="M266.675 312.851C267.975 312.851 269.224 312.65 270.524 312.349L281.604 309.487L284.049 309.889C286.286 310.291 288.366 308.684 288.471 306.475L289.615 286.544C289.719 285.138 288.471 284.034 287.066 284.134C284.881 284.335 282.645 284.586 280.252 284.636C266.78 285.038 255.336 274.797 255.492 261.794C255.596 249.394 266.051 239.353 278.952 239.353C281.917 239.353 284.57 239.404 287.275 239.604C288.627 239.705 289.771 238.651 289.771 237.345L289.771 126.745C289.771 125.34 288.523 124.285 287.067 124.486C284.726 124.838 282.333 124.988 279.732 124.988C266.728 125.139 255.544 115.048 255.44 102.497C255.336 89.8963 265.895 79.6553 278.9 79.6553C279.576 79.6553 280.305 79.7055 280.981 79.7557C282.541 79.9063 283.738 78.5006 283.426 77.0447L282.801 74.0827C282.697 72.7774 282.229 68.7612 278.9 65.1968C277.444 63.6405 275.883 62.6364 274.479 61.9336C272.034 60.7287 269.745 59.1724 267.716 57.3149C266.832 56.5116 265.896 55.6582 265.012 54.8549C261.786 52.9974 258.301 54.7545 254.557 54.6039C248.106 54.403 241.865 58.4193 235.415 56.8128C234.478 56.5617 233.438 56.9132 232.918 57.6662C230.993 60.327 230.005 63.4898 230.005 66.753L230.005 78.3C230.005 78.9526 229.849 79.5551 229.537 80.1073C227.872 82.7179 226.156 85.2782 224.491 87.8888C218.197 97.5278 213.567 108.071 210.915 119.216C210.759 119.818 210.655 120.421 210.499 121.023C208.834 128.604 208.158 135.532 208.002 141.305L208.002 162.039C208.002 182.974 213.672 203.557 224.439 221.73L237.287 243.468L244.933 287.396C246.13 294.274 248.991 300.8 253.308 306.423C253.36 306.473 256.793 312.849 266.676 312.849L266.675 312.851Z" stroke="#DBDBDB"/>
<path id="1" d="M284 137.02C284 137.02 284 138.52 284 148.52L284 157.02C284 157.02 284 162.02 284.246 171.52C284.311 174.023 284.246 230.02 284.246 230.02L285.739 230.02C285.738 223.02 285.739 173.52 285.738 166.02C285.738 159.52 285.739 158.124 285.738 153.52L285.738 147.02C285.738 147.02 285.738 147.02 285.738 141.52C285.738 135.092 285.739 132.02 285.739 132.02C285.739 132.02 283.999 131.52 284 135.52C283.999 139.02 284 137.02 284 137.02Z" fill="#DBDBDB"/>
<path id="3" d="M233.827 107.511C232.893 106.989 231.812 106.847 230.829 107.179C228.323 108.032 226.309 109.739 225.08 111.968L222.574 116.616C217.365 126.196 214.663 136.961 214.663 147.774L214.663 161.195L231.911 164.325C239.134 165.653 246.554 166.317 253.876 166.317L279.723 166.317C279.723 163.898 279.772 158.255 279.772 152.611C279.772 148.295 279.772 144.833 279.723 142.415C279.723 140.565 278.642 138.621 276.775 137.103C275.35 135.918 273.826 134.827 272.254 133.831C270.583 132.788 269.306 132.171 268.077 131.602C266.603 130.891 265.178 130.227 263.458 128.994C261.689 127.713 260.018 126.196 258.544 124.488C255.596 121.074 252.156 118.181 248.225 115.905L248.176 115.857L248.127 115.857L233.828 107.51L233.827 107.511ZM234.711 112.538C236.48 114.577 237.463 117.185 237.463 119.888L237.463 160.436C237.463 161.243 236.726 161.859 235.891 161.764L219.479 159.346C217.906 159.108 216.776 157.828 216.825 156.31L217.022 146.161C217.218 136.676 219.872 127.428 224.785 119.224L226.653 116.094C227.734 114.292 229.306 112.822 231.223 111.874C232.402 111.257 233.876 111.542 234.711 112.538Z" fill="#DBDBDB"/>
<path id="2" d="M231.395 167.04L214.663 164L214.81 166.945C215.795 185.421 221.552 203.565 231.444 219.428C233.61 222.847 237.005 225.412 240.992 226.505C252.459 229.734 264.712 230.494 276.523 228.689L278.245 228.405C279.131 228.262 279.771 227.55 279.771 226.647L279.771 169.034L253.885 169.034C246.355 169.034 238.777 168.37 231.395 167.04ZM219.043 166.755L235.037 170.602C236.759 171.029 237.989 172.454 238.088 174.164L240.007 208.219L240.056 208.219C242.615 208.219 244.732 210.214 244.732 212.731L244.732 220.046C244.732 220.663 244.584 221.233 244.387 221.803C244.289 222.041 243.993 222.136 243.747 222.041C243.501 221.946 243.403 221.661 243.501 221.423C243.698 220.996 243.797 220.521 243.797 220.046L243.797 212.731C243.797 210.737 242.123 209.122 240.056 209.122L240.007 209.122C237.694 209.122 235.824 210.927 235.824 213.159L235.824 220.473L235.824 220.711L235.578 220.331C226.277 206.842 220.273 191.548 218.058 175.495L217.074 168.418C216.877 167.42 217.911 166.517 219.043 166.755Z" fill="#DBDBDB"/>
<path fill-rule="evenodd" clip-rule="evenodd" d="M90.4707 329.492C88.8582 327.384 86.3613 325.877 83.4484 325.626L76.4261 325.024C72.7849 324.723 69.6119 327.283 69.2998 330.797C68.9877 334.312 71.6406 337.374 75.2818 337.675L85.8928 338.579C84.1762 342.796 83.2919 347.264 83.2919 351.833L83.2919 369.655C83.2919 373.32 86.3089 376.382 90.1061 376.583C107.844 377.386 126.362 377.838 145.608 377.838L146.024 377.838C165.426 377.838 184.101 377.386 201.942 376.583C205.74 376.432 208.756 373.37 208.756 369.655L208.756 351.883C208.756 347.314 207.872 342.846 206.156 338.629L216.767 337.725C220.408 337.424 223.061 334.311 222.749 330.847C222.436 327.333 219.211 324.773 215.622 325.074L208.6 325.677C205.687 325.928 203.19 327.383 201.578 329.542L90.4676 329.542L90.4676 329.492L90.4707 329.492Z" stroke="#DBDBDB"/>
<path id="11" d="M88.4209 341C86.8084 344.765 85.9241 348.731 85.9241 352.798L85.9241 368.662C85.9241 371.925 88.785 374.636 92.4262 374.787C109.384 375.49 127.069 375.941 145.431 375.941L145.847 375.941C164.365 375.941 182.207 375.54 199.269 374.787C202.911 374.636 205.771 371.925 205.771 368.662L205.771 352.798C205.771 348.732 204.939 344.765 203.275 341L88.4247 341L88.4209 341Z" fill="#DBDBDB"/>
<path id="Vector_3" d="M187.901 301.87C192.218 299.56 195.599 295.996 197.576 291.629C198.825 288.918 199.449 285.956 199.449 282.994L199.449 228.875C199.709 228.824 199.865 228.774 199.969 228.724C201.998 228.122 208.708 226.063 211.049 220.943C211.933 219.085 211.777 217.679 211.725 217.378C211.725 217.177 211.569 215.972 211.049 215.37C209.228 213.211 202.726 217.78 199.449 220.29L199.449 151.411C199.449 149.252 199.709 147.043 200.281 144.935C200.853 142.826 201.113 140.617 201.113 138.458L201.113 86.8995C201.113 83.9375 200.541 81.0257 199.449 78.2646C195.496 68.4248 189.306 58.7856 178.538 56.8276C167.718 54.8195 156.327 54.4681 145.611 54.4681C136.612 54.4681 127.197 54.7191 117.99 55.9742L117.99 51.7069C117.99 51.1045 117.99 50.0502 114.505 50C111.072 50 111.02 51.3053 111.02 53.3636L111.02 57.1288C101.241 59.7394 95.4667 68.8768 91.7217 78.2138C90.6293 80.975 90.0572 83.8867 90.0572 86.8487L90.0572 138.408C90.0572 140.617 90.3173 142.775 90.8895 144.884C91.4617 146.992 91.7218 149.201 91.7218 151.36L91.7218 220.239C88.4447 217.729 81.9426 213.16 80.1218 215.319C79.6016 215.922 79.4456 217.126 79.4456 217.327C79.3935 217.629 79.2375 219.034 80.1218 220.892C82.4626 225.962 89.1728 228.02 91.2018 228.673C91.3058 228.723 91.5139 228.774 91.7219 228.824L91.7219 282.943C91.7219 285.905 92.3461 288.867 93.5945 291.578C95.5712 295.895 98.9523 299.51 103.27 301.819C111.645 306.237 126.938 312.663 145.612 312.663C164.234 312.713 179.527 306.287 187.902 301.869L187.901 301.87ZM192.374 115.57L192.374 217.23C192.374 217.882 191.438 218.033 191.23 217.38L183.271 190.923C182.595 188.714 182.283 186.405 182.283 184.096L182.283 139.716C182.283 136.201 183.063 132.737 184.572 129.575L191.282 115.317C191.542 114.764 192.374 114.965 192.374 115.568L192.374 115.57ZM109.095 100.66C120.175 98.802 132.555 97.7477 145.559 97.7477C158.563 97.7477 170.943 98.802 182.023 100.66C183.792 100.961 184.728 102.768 184 104.324L176.978 118.381C176.458 119.385 175.365 119.988 174.221 119.837C165.95 118.733 156.119 118.08 145.612 118.08C135.105 118.08 125.273 118.733 117.003 119.837C115.859 119.988 114.714 119.385 114.246 118.381L107.224 104.324C106.339 102.768 107.327 100.961 109.095 100.66ZM98.7444 217.229L98.7444 115.57C98.7444 114.967 99.5767 114.766 99.8888 115.318L106.599 129.576C108.108 132.739 108.888 136.203 108.888 139.717L108.888 184.097C108.888 186.407 108.524 188.716 107.899 190.925L99.9409 217.382C99.7328 217.985 98.7445 217.884 98.7445 217.231L98.7444 217.229ZM106.287 229.781C103.686 229.078 102.178 226.467 102.906 223.957L110.708 197.249C111.437 194.839 113.934 193.383 116.482 193.936C125.065 195.743 135 196.747 145.612 196.747C156.223 196.747 166.159 195.743 174.742 193.936C177.291 193.433 179.788 194.839 180.516 197.249L188.319 223.957C189.047 226.467 187.539 229.078 184.938 229.781C172.922 233.144 159.658 235.002 145.613 235.002C131.568 235.002 118.251 233.144 106.287 229.781Z" stroke="#DBDBDB"/>
<path id="5" d="M235.177 60.277C235.177 60.277 233.227 66.3946 234.202 75.806L233.909 81.1706C233.909 81.1706 226.4 90.394 226.693 93.2176C227.034 96.0411 235.128 100.935 235.128 100.935L254.631 111.57C254.387 111.429 251.218 96.3701 256.045 89.4061C260.238 83.3827 266.869 78.7241 273.891 77.9241L278.767 77.1241C278.767 77.1241 279.157 67.8066 272.185 64.7951C265.212 61.7834 262.725 58.254 262.725 58.254C262.725 58.254 252.096 57.3128 249.463 59.054C246.879 60.7481 235.177 60.277 235.177 60.277Z" fill="#DBDBDB"/>
<path id="4" d="M239.788 235.259L248.817 288.447C248.817 288.447 253.283 303.461 257.504 305.024C261.724 306.587 264.521 307.393 267.613 306.587C270.704 305.782 278.115 303.746 278.115 303.746C278.115 303.746 284.298 307.061 284.298 303.13C284.298 299.199 285.279 287.172 285.279 287.172C285.279 287.172 252.805 289.493 252.372 261.641C251.976 236.073 281.009 236.737 281.009 236.737L281.009 230.855C281.009 230.855 257.797 236.586 239.787 230.855L239.788 235.259Z" fill="#DBDBDB"/>
<path id="Vector_4" fill-rule="evenodd" clip-rule="evenodd" d="M37.4608 306.439C41.7782 300.817 44.6392 294.34 45.8356 287.412L53.4821 243.484L66.3301 221.746C77.0981 203.572 82.7671 182.989 82.7671 162.055L82.7671 141.321C82.559 135.498 81.9348 128.62 80.2703 121.039C80.1142 120.437 80.0102 119.834 79.8541 119.232C77.2532 108.137 72.5717 97.5939 66.2781 87.9049C64.6136 85.2943 62.897 82.734 61.2324 80.1234C60.9203 79.5712 60.7643 78.9185 60.7643 78.3161L60.7643 66.7691C60.7643 63.5059 59.724 60.3431 57.8513 57.6823C57.2791 56.879 56.2908 56.5778 55.3545 56.8288C48.9044 58.4353 42.6625 54.3688 36.2125 54.6199C32.4673 54.7204 28.9301 53.0134 25.7575 54.871C24.8732 55.6742 23.9369 56.5277 23.0526 57.331C21.0239 59.1885 18.7872 60.7448 16.2904 61.9497C14.938 62.6525 13.3254 63.6566 11.8689 65.2129C8.5398 68.7773 8.07159 72.7936 7.96759 74.0988L7.34338 77.0608C7.03128 78.5167 8.27969 79.8722 9.78818 79.7718C10.4644 79.7216 11.1406 79.6714 11.8689 79.6714C24.8729 79.6714 35.4329 89.9124 35.3289 102.513C35.2249 115.064 24.0409 125.155 11.0369 125.004C8.43599 124.954 6.04328 124.854 3.70248 124.502C2.29798 124.302 0.997583 125.356 0.997583 126.761L0.997573 237.311C0.997573 238.617 2.14197 239.671 3.49437 239.571C6.19927 239.37 8.80006 239.32 11.8171 239.32C24.7171 239.32 35.1731 249.361 35.2771 261.761C35.3811 274.764 23.9371 285.005 10.5171 284.603C8.12427 284.552 5.88756 284.301 3.70286 284.1C2.24636 283.95 1.04996 285.105 1.15406 286.51L2.29847 306.441C2.40251 308.65 4.48315 310.206 6.71995 309.855L9.16477 309.453L20.2448 312.315C21.5452 312.666 22.7936 312.817 24.0941 312.817C34.0294 312.817 37.4621 306.441 37.4621 306.441L37.4608 306.439Z" stroke="#DBDBDB"/>
<path id="9" d="M51.2608 235.259L42.2312 288.447C42.2312 288.447 37.7655 303.461 33.5451 305.024C29.3247 306.587 26.5275 307.393 23.4361 306.587C20.3444 305.782 12.9341 303.746 12.9341 303.746C12.9341 303.746 6.75076 307.061 6.75076 303.13C6.75076 299.199 5.76928 287.172 5.76928 287.172C5.76928 287.172 38.2433 289.493 38.6763 261.641C39.0729 236.073 10.0393 236.737 10.0393 236.737L10.0393 230.855C10.0393 230.855 33.2513 236.586 51.2613 230.855L51.2608 235.259Z" fill="#DBDBDB"/>
<path id="8" d="M42.3107 115.901L42.2124 115.949C38.2813 118.225 34.7925 121.118 31.8934 124.532C30.4193 126.287 28.7486 127.805 26.9796 129.038C25.2598 130.271 23.8348 130.935 22.3606 131.646C21.1321 132.263 19.8054 132.879 18.1839 133.875C16.6115 134.871 15.0882 135.962 13.6632 137.147C11.8451 138.665 10.764 140.609 10.7149 142.459C10.6657 144.925 10.6658 148.34 10.6658 152.655C10.6658 158.251 10.7149 163.942 10.7149 166.361L36.5619 166.361C43.9326 166.361 51.3029 165.697 58.5269 164.369L75.7749 161.239L75.7749 147.77C75.7749 136.957 73.0232 126.192 67.8636 116.612L65.3576 111.965C64.1291 109.688 62.1145 108.028 59.6084 107.175C58.6256 106.843 57.5446 106.985 56.611 107.507L42.312 115.901L42.3107 115.901ZM59.2147 111.918C61.1311 112.866 62.7035 114.336 63.7846 116.138L65.6519 119.268C70.5657 127.473 73.2192 136.72 73.4157 146.205L73.6122 156.354C73.6614 157.872 72.482 159.2 70.9587 159.39L54.5467 161.808C53.7114 161.951 52.9743 161.334 52.9743 160.48L52.9743 119.932C52.9743 117.229 53.9571 114.668 55.726 112.582C56.5614 111.633 58.0354 111.348 59.2147 111.918Z" fill="#DBDBDB"/>
<path id="7" d="M36.5506 170.031L10.6646 170.031L10.6646 227.691C10.6646 228.546 11.3044 229.306 12.1902 229.449L13.9126 229.734C25.7236 231.538 37.9776 230.778 49.4436 227.549C53.4298 226.409 56.8255 223.892 58.9908 220.472C68.9317 204.561 74.6408 186.417 75.6248 167.941L75.7725 164.996L59.0405 168.036C51.6585 169.366 44.0796 170.031 36.5506 170.031ZM73.4106 169.509L72.4264 176.586C70.2118 192.64 64.2079 207.981 54.9064 221.422L54.6603 221.802L54.6603 221.564L54.6603 214.25C54.6603 212.017 52.7902 210.213 50.4772 210.213L50.428 210.213C48.3611 210.213 46.6879 211.827 46.6879 213.822L46.6879 221.137C46.6879 221.612 46.7863 222.087 46.9832 222.514C47.0816 222.752 46.9832 223.037 46.7371 223.131C46.491 223.226 46.1958 223.132 46.0973 222.894C45.8513 222.324 45.7529 221.754 45.7529 221.137L45.7529 213.822C45.7529 211.352 47.8198 209.31 50.4281 209.31L50.4773 209.31L52.3966 175.255C52.495 173.545 53.7253 172.12 55.4478 171.693L71.4418 167.846C72.5245 167.513 73.5582 168.416 73.4106 169.509Z" fill="#DBDBDB"/>
<path id="6" d="M3.00049 142.02C3.00049 142.02 3.00049 143.52 3.00049 153.52L3.00049 162.02C3.00049 162.02 3.00049 167.02 3.24638 176.52C3.31116 179.023 3.24638 235.02 3.24638 235.02L4.73857 235.02C4.7383 228.02 4.73851 178.52 4.7383 171.02C4.7383 164.52 4.73935 163.124 4.7383 158.52L4.73846 152.02C4.73846 152.02 4.73846 152.02 4.73846 146.52C4.73846 140.092 4.73851 137.02 4.73851 137.02C4.73851 137.02 2.99907 136.52 3.00049 140.52C2.99919 144.02 3.00049 142.02 3.00049 142.02Z" fill="#DBDBDB"/>
<path id="10" d="M55.7107 59.4301C55.7107 59.4301 57.7914 65.9565 56.751 75.9971L57.0631 81.7203C57.0631 81.7203 65.0737 91.5601 64.7616 94.5723C64.3975 97.5845 55.7626 102.806 55.7626 102.806L34.9556 114.152C35.2157 114.001 39.1473 97.93 33.9976 90.5C29.5241 84.074 21.8991 79.1096 14.4091 78.2556L9.20742 77.4022C9.20742 77.4022 8.79129 67.462 16.2297 64.2492C23.6682 61.0362 26.3207 57.271 26.3207 57.271C26.3207 57.271 37.6607 56.2669 40.4697 58.1244C43.2266 59.9317 55.7107 59.4301 55.7107 59.4301Z" fill="#DBDBDB"/>
<path id="13" d="M189.771 231C189.771 231 148.938 245.961 102.642 231L102.642 284.968C102.642 284.968 110.809 305.601 145.712 303.844C180.616 302.087 189.771 284.968 189.771 284.968L189.771 231Z" fill="#DBDBDB"/>
<path id="15" d="M189.741 96.64L189.741 72.743C189.741 72.743 191.041 62 176.737 62L111.143 62C111.143 62 102.352 63.7069 102.352 70.4843L102.352 96.6403C102.352 96.6403 140.064 88.1055 189.741 96.64Z" fill="#DBDBDB"/>
<path id="14" d="M178.771 127.163C178.771 127.163 150.422 116.369 114.27 126.008L114.27 189.666C114.27 189.666 147.041 198.451 178.771 189.666L178.771 127.163Z" fill="#DBDBDB"/>
<path id="Vector_5" d="M178.631 362.781C178.631 362.781 186.069 362.832 189.971 360.121C193.872 357.41 197.773 347.42 197.773 347.42C197.773 347.42 175.302 344.508 169.268 354.097C163.234 363.685 178.631 362.781 178.631 362.781Z" fill="white"/>
<path id="Vector_6" d="M110.001 362.781C110.001 362.781 102.562 362.832 98.6608 360.121C94.7593 357.41 90.8582 347.42 90.8582 347.42C90.8582 347.42 113.329 344.508 119.363 354.097C125.397 363.685 110.001 362.781 110.001 362.781Z" fill="white"/>
<path fill-rule="evenodd" clip-rule="evenodd" d="M206.17 40.2591C207.887 36.042 208.771 31.574 208.771 27.0051L208.771 9.1831C208.771 5.5183 205.754 2.4559 201.957 2.2551C184.219 1.45185 165.701 0.999996 146.455 0.999995L146.039 0.999995C126.637 0.999993 107.962 1.45182 90.1207 2.25509C86.3234 2.4057 83.3064 5.46809 83.3064 9.18309L83.3064 27.0051C83.3064 31.5736 84.1907 36.0417 85.9074 40.2591L206.167 40.2591L206.17 40.2591Z" stroke="#DBDBDB"/>
<path id="12" d="M203.274 37.9415C204.887 34.1763 205.771 30.2102 205.771 26.1435L205.771 10.2795C205.771 7.0163 202.91 4.3053 199.269 4.1547C182.311 3.45186 164.626 3 146.264 2.99999L145.848 2.99999C127.33 2.99999 109.488 3.40161 92.4258 4.15469C88.7846 4.3053 85.9237 7.01629 85.9237 10.2795L85.9237 26.1435C85.9237 30.2099 86.7559 34.176 88.4205 37.9415L203.27 37.9415L203.274 37.9415Z" fill="#DBDBDB"/>
<path id="Vector_8" d="M153.591 29.6811L153.591 25.5142C153.591 23.6065 155.204 22 157.232 22L197.129 22C199.158 22 200.771 23.6065 200.771 25.5142L200.771 29.6811C200.771 31.5888 199.158 33.1953 197.129 33.1953L157.232 33.1953C155.204 33.1953 153.591 31.5888 153.591 29.6811Z" fill="white"/>
<path id="Vector_9" d="M90.5906 29.6811L90.5906 25.5142C90.5906 23.6065 92.2031 22 94.2318 22L134.129 22C136.158 22 137.77 23.6065 137.77 25.5142L137.77 29.6811C137.77 31.5888 136.158 33.1953 134.129 33.1953L94.2318 33.1953C92.2031 33.1953 90.5906 31.5888 90.5906 29.6811Z" fill="white"/>
</svg>